<svg xmlns="http://www.w3.org/2000/svg" viewBox="0 0 140 47"><defs><style>.cls-1{fill:#ffb900;}.cls-2{fill:#6cb33f;}</style></defs><title>Ask a Librarian Online</title><g id="Layer_2" data-name="Layer 2"><g id="Layer_1-2" data-name="Layer 1"><rect class="cls-1" width="140" height="47" rx="23.5" ry="23.5"/><circle class="cls-2" cx="19" cy="23" r="6.5"/><path d="M36.79,18.54l3.44,9.92H38.65L37.82,26H34.28l-.82,2.47H31.88l3.44-9.92Zm-2,6h2.61l-1.31-4Z"/><path d="M45.76,22.34l-.94.82a1.55,1.55,0,0,0-1.24-.65.68.68,0,0,0-.71.71c0,.51.54.73,1.27,1,1,.36,2,.79,2,2.06a2.29,2.29,0,0,1-2.48,2.27,3,3,0,0,1-2.76-1.91L42.15,26a1.85,1.85,0,0,0,1.57,1.29.86.86,0,0,0,1-.94c0-.62-.86-.79-1.7-1.15a2.05,2.05,0,0,1-1.53-1.95,2.08,2.08,0,0,1,2.2-2A2.48,2.48,0,0,1,45.76,22.34Z"/><path d="M49.2,18.43v5.73l2.58-2.84h1.87l-3,3.28,3.17,3.86H52L49.2,25v3.42H47.73v-10Z"/><path d="M61.32,24.07h1.23v-.32c0-.89-.64-1.24-1.39-1.24a1.37,1.37,0,0,0-1.33.95l-1.35-.29a2.61,2.61,0,0,1,2.69-2c1.66,0,2.85.72,2.85,2.81v4.44H62.77l-.14-.94a2.57,2.57,0,0,1-2.21,1.05,2,2,0,0,1-2.19-2.17C58.23,24.93,59.49,24.07,61.32,24.07Zm-.64,3.2a1.78,1.78,0,0,0,1.87-1.82V25.3H61.26c-.91,0-1.47.42-1.47,1.1A.81.81,0,0,0,60.68,27.27Z"/><path d="M71.43,18.54V27h4.28v1.48H69.87V18.54Z"/><path d="M77.82,18.27a1,1,0,0,1,1,1,1,1,0,0,1-2,0A1,1,0,0,1,77.82,18.27Zm.74,3.05v7.14H77.09V21.32Z"/><path d="M83.9,28.57A2.37,2.37,0,0,1,82,27.63v.83H80.49v-10H82v3.68a2.62,2.62,0,0,1,1.91-.9c2.14,0,3.21,1.47,3.21,3.68S86,28.57,83.9,28.57Zm-.2-6.06c-1.06,0-1.83.9-1.83,2.38s.77,2.38,1.83,2.38,1.83-.91,1.83-2.38S84.76,22.51,83.7,22.51Z"/><path d="M88.66,28.46V21.32h1.47v1.19a2.53,2.53,0,0,1,2.11-1.3,2.37,2.37,0,0,1,.91.17l-.26,1.34a1.6,1.6,0,0,0-.83-.21c-1,0-1.93,1-1.93,3.3v2.65Z"/><path d="M96.79,24.07H98v-.32c0-.89-.63-1.24-1.38-1.24a1.39,1.39,0,0,0-1.34.95L94,23.17a2.61,2.61,0,0,1,2.69-2c1.66,0,2.85.72,2.85,2.81v4.44H98.25l-.14-.94a2.58,2.58,0,0,1-2.21,1.05,2,2,0,0,1-2.19-2.17C93.71,24.93,95,24.07,96.79,24.07Zm-.64,3.2A1.77,1.77,0,0,0,98,25.45V25.3H96.74c-.91,0-1.48.42-1.48,1.1A.81.81,0,0,0,96.15,27.27Z"/><path d="M101.31,28.46V21.32h1.48v1.19a2.5,2.5,0,0,1,2.1-1.3,2.33,2.33,0,0,1,.91.17l-.25,1.34a1.66,1.66,0,0,0-.84-.21c-.95,0-1.92,1-1.92,3.3v2.65Z"/><path d="M107.83,18.27a1,1,0,0,1,1,1,1,1,0,0,1-2,0A1,1,0,0,1,107.83,18.27Zm.74,3.05v7.14h-1.48V21.32Z"/><path d="M113.35,24.07h1.24v-.32c0-.89-.64-1.24-1.39-1.24a1.37,1.37,0,0,0-1.33.95l-1.35-.29a2.61,2.61,0,0,1,2.69-2c1.66,0,2.85.72,2.85,2.81v4.44h-1.25l-.14-.94a2.58,2.58,0,0,1-2.21,1.05,2,2,0,0,1-2.19-2.17C110.27,24.93,111.53,24.07,113.35,24.07Zm-.63,3.2a1.78,1.78,0,0,0,1.87-1.82V25.3H113.3c-.91,0-1.47.42-1.47,1.1A.8.8,0,0,0,112.72,27.27Z"/><path d="M119.48,21.32v1.22a2.64,2.64,0,0,1,2.3-1.33,2,2,0,0,1,2.1,2.13v5.12h-1.47V23.81c0-1-.44-1.3-1.11-1.3-.92,0-1.82,1.09-1.82,3.06v2.89H118V21.32Z"/></g></g></svg>