<?xml version="1.0" encoding="utf-8"?>
<!-- Generator: Adobe Illustrator 26.4.1, SVG Export Plug-In . SVG Version: 6.00 Build 0)  -->
<svg version="1.1" id="Layer_1" xmlns="http://www.w3.org/2000/svg" xmlns:xlink="http://www.w3.org/1999/xlink" x="0px" y="0px"
	 viewBox="0 0 140 47" style="enable-background:new 0 0 140 47;" xml:space="preserve">
<style type="text/css">
	.st0{fill:#FF8548;}
</style>
<g id="Layer_2_00000155148832413036522820000000326465880307110017_">
	<g id="Layer_1-2">
		<path class="st0" d="M23.5,0h93c13,0,23.5,10.5,23.5,23.5l0,0c0,13-10.5,23.5-23.5,23.5h-93C10.5,47,0,36.5,0,23.5l0,0
			C0,10.5,10.5,0,23.5,0z"/>
	</g>
</g>
<path d="M30.1,12.4c-6.2,0-11.3,4.1-11.3,9.2c0,2.1,0.9,4,2.4,5.6c-0.6,1.7-2,3.2-2,3.2c-0.3,0.3-0.4,0.7-0.2,1.2
	c0.2,0.4,0.5,0.6,1,0.6c2.7,0,4.8-1.1,6.1-2c1.3,0.4,2.7,0.6,4.1,0.6c6.2,0,11.3-4.1,11.3-9.2S36.4,12.4,30.1,12.4z M30.1,28.8
	c-1.2,0-2.4-0.2-3.5-0.5l-1-0.3l-0.8,0.6c-0.6,0.5-1.5,0.9-2.6,1.3c0.4-0.5,0.6-1.1,0.9-1.7l0.5-1.3l-0.9-1
	c-0.9-0.9-1.8-2.3-1.8-4.2c0-3.9,4.1-7,9.2-7s9.2,3.2,9.2,7S35.2,28.8,30.1,28.8z"/>
<g>
	<path d="M52.6,20.7c-0.5-1.2-1.1-1.8-2.3-1.8c-1.5,0-2.8,1.1-2.8,3.3c0,2.2,1.2,3.3,2.8,3.3c1.2,0,1.9-0.6,2.3-1.8l1.4,0.3
		C53.5,26,52.2,27,50.2,27C48,27,46,25.4,46,22.3c0-3.1,2-4.7,4.3-4.7c2,0,3.2,1,3.7,2.8L52.6,20.7z"/>
	<path d="M56.7,17.6v3.8c0.5-0.7,1.2-1.2,2.2-1.2c1.2,0,2,0.7,2,2.1v4.7h-1.4v-4.3c0-1-0.4-1.2-1-1.2c-0.7,0-1.8,1-1.8,2.7v2.8h-1.4
		v-9.3H56.7z"/>
	<path d="M65.3,22.8h1.1v-0.3c0-0.8-0.6-1.2-1.3-1.2c-0.5,0-1,0.3-1.2,0.9L62.7,22c0.3-1.1,1.2-1.8,2.5-1.8c1.5,0,2.6,0.7,2.6,2.6
		v4.1h-1.2L66.5,26c-0.4,0.6-1.1,1-2,1c-1.1,0-2-0.6-2-2C62.5,23.6,63.6,22.8,65.3,22.8z M64.7,25.8c0.8,0,1.7-0.5,1.7-1.7V24h-1.2
		c-0.8,0-1.4,0.4-1.4,1C63.9,25.4,64.1,25.8,64.7,25.8z"/>
	<path d="M68.9,20.3H70v-1.8l1.4-0.9v2.7h1.7v1.2h-1.7v3.2c0,0.7,0.3,1.1,0.9,1.1c0.2,0,0.4,0,0.6-0.2l0.4,1.2
		c-0.4,0.2-0.7,0.2-1.1,0.2c-1.2,0-2.2-0.7-2.2-2.4v-3.1h-1.1V20.3z"/>
	<path d="M80.9,20.2c2,0,3.3,1.5,3.3,3.4c0,1.9-1.2,3.4-3.3,3.4s-3.3-1.5-3.3-3.4C77.7,21.7,78.9,20.2,80.9,20.2z M80.9,25.8
		c1.2,0,1.8-1.1,1.8-2.2c0-1.1-0.6-2.2-1.8-2.2s-1.8,1.1-1.8,2.2C79.1,24.7,79.7,25.8,80.9,25.8z"/>
	<path d="M85.1,20.3h0.9v-0.3c0-1.6,0.9-2.3,2.2-2.3c0.4,0,0.8,0.1,1.1,0.2L89,19c-0.3-0.1-0.5-0.2-0.8-0.2c-0.6,0-0.9,0.4-0.9,1
		v0.4h1.5v1.2h-1.5v5.4h-1.4v-5.4h-0.9V20.3z"/>
	<path d="M89.8,20.3h0.9v-0.3c0-1.6,0.9-2.3,2.2-2.3h3.3v9.3h-1.4v-8.1h-1.9c-0.6,0-0.9,0.4-0.9,1v0.4h1.5v1.2h-1.5v5.4h-1.4v-5.4
		h-0.9V20.3z"/>
	<path d="M99,17.5c0.5,0,0.9,0.4,0.9,1s-0.4,0.9-0.9,0.9s-0.9-0.4-0.9-0.9S98.5,17.5,99,17.5z M99.7,20.3v6.6h-1.4v-6.6H99.7z"/>
	<path d="M102.8,20.3v1.1c0.5-0.8,1.3-1.2,2.1-1.2c1.2,0,1.9,0.7,1.9,2v4.7h-1.4v-4.3c0-0.9-0.4-1.2-1-1.2c-0.9,0-1.7,1-1.7,2.8v2.7
		h-1.4v-6.6H102.8z"/>
	<path d="M114.4,24h-4.7c0,1,0.6,1.8,1.6,1.8c0.7,0,1.4-0.4,1.7-1.1l1.2,0.5c-0.6,1.2-1.4,1.9-2.9,1.9c-2.2,0-3.1-1.8-3.1-3.4
		c0-1.6,0.9-3.4,3.1-3.4c2.1,0,3,1.7,3,3.2V24z M109.8,22.8h3.2c-0.1-0.7-0.6-1.4-1.6-1.4C110.5,21.4,109.9,22,109.8,22.8z"/>
</g>
</svg>
