<?xml version="1.0" encoding="utf-8"?>
<!-- Generator: Adobe Illustrator 26.4.1, SVG Export Plug-In . SVG Version: 6.00 Build 0)  -->
<svg version="1.1" id="Layer_1" xmlns="http://www.w3.org/2000/svg" xmlns:xlink="http://www.w3.org/1999/xlink" x="0px" y="0px"
	 viewBox="0 0 140 47" style="enable-background:new 0 0 140 47;" xml:space="preserve">
<style type="text/css">
	.st0{fill:#FF8548;}
</style>
<g id="Layer_2_00000155148832413036522820000000326465880307110017_">
	<g id="Layer_1-2">
		<path class="st0" d="M23.5,0h93c13,0,23.5,10.5,23.5,23.5l0,0c0,13-10.5,23.5-23.5,23.5h-93C10.5,47,0,36.5,0,23.5l0,0
			C0,10.5,10.5,0,23.5,0z"/>
	</g>
</g>
<g>
	<path d="M49.2,16.7v10.1h5v1.7h-6.9V16.7H49.2z"/>
	<path d="M56.7,16.4c0.7,0,1.2,0.5,1.2,1.2s-0.5,1.2-1.2,1.2c-0.7,0-1.2-0.5-1.2-1.2S56,16.4,56.7,16.4z M57.6,20v8.5h-1.7V20H57.6z
		"/>
	<path d="M60.8,20l1.8,6.1l1.8-6.1h1.7l-2.8,8.5h-1.6L58.8,20H60.8z"/>
	<path d="M74.7,24.7h-6c0,1.3,0.7,2.4,2.1,2.4c0.9,0,1.7-0.5,2.2-1.5l1.5,0.5c-0.8,1.6-1.7,2.4-3.7,2.4c-2.7,0-3.9-2.4-3.9-4.4
		s1.2-4.4,3.9-4.4s3.9,2.2,3.9,4.1L74.7,24.7L74.7,24.7z M68.7,23.3h4.1c-0.2-0.9-0.8-1.8-2-1.8S68.9,22.2,68.7,23.3z"/>
	<path d="M89.1,20.6c-0.6-1.6-1.5-2.3-3-2.3c-2,0-3.6,1.4-3.6,4.3c0,2.8,1.6,4.3,3.6,4.3c1.6,0,2.4-0.7,3-2.3l1.7,0.5
		c-0.6,2.2-2.3,3.6-4.8,3.6c-2.8,0-5.5-2-5.5-6s2.6-6,5.5-6c2.5,0,4.1,1.4,4.8,3.6L89.1,20.6z"/>
	<path d="M94.4,16.6v4.8c0.6-0.9,1.6-1.6,2.8-1.6c1.6,0,2.5,0.8,2.5,2.7v5.9H98V23c0-1.3-0.5-1.6-1.4-1.6c-0.9,0-2.3,1.2-2.3,3.5
		v3.6h-1.7V16.6C92.6,16.6,94.4,16.6,94.4,16.6z"/>
	<path d="M105.4,23.3h1.5v-0.4c0-1.1-0.7-1.5-1.6-1.5c-0.7,0-1.3,0.4-1.6,1.1l-1.6-0.4c0.4-1.5,1.6-2.4,3.2-2.4
		c1.9,0,3.4,0.8,3.4,3.4v5.3h-1.5l-0.2-1.1c-0.5,0.7-1.5,1.3-2.7,1.3c-1.4,0-2.6-0.8-2.6-2.6C101.7,24.3,103.2,23.3,105.4,23.3z
		 M104.6,27.1c1.1,0,2.2-0.7,2.2-2.2v-0.2h-1.6c-1.1,0-1.7,0.5-1.7,1.3C103.5,26.7,103.9,27.1,104.6,27.1z"/>
	<path d="M109.8,20h1.4v-2.4l1.7-1.1v3.4h2.2v1.6H113v4.2c0,0.9,0.4,1.4,1.1,1.4c0.3,0,0.5-0.1,0.8-0.3l0.5,1.5
		c-0.5,0.2-0.9,0.3-1.4,0.3c-1.6,0-2.7-0.9-2.7-3v-4h-1.4V20z"/>
</g>
<path d="M30.1,12.4c-6.2,0-11.3,4.1-11.3,9.2c0,2.1,0.9,4,2.4,5.6c-0.6,1.7-2,3.2-2,3.2c-0.3,0.3-0.4,0.7-0.2,1.2
	c0.2,0.4,0.5,0.6,1,0.6c2.7,0,4.8-1.1,6.1-2c1.3,0.4,2.7,0.6,4.1,0.6c6.2,0,11.3-4.1,11.3-9.2S36.4,12.4,30.1,12.4z M30.1,28.8
	c-1.2,0-2.4-0.2-3.5-0.5l-1-0.3l-0.8,0.6c-0.6,0.5-1.5,0.9-2.6,1.3c0.4-0.5,0.6-1.1,0.9-1.7l0.5-1.3l-0.9-1
	c-0.9-0.9-1.8-2.3-1.8-4.2c0-3.9,4.1-7,9.2-7s9.2,3.2,9.2,7S35.2,28.8,30.1,28.8z"/>
</svg>
