<?xml version="1.0" encoding="utf-8"?>
<!-- Generator: Adobe Illustrator 26.1.0, SVG Export Plug-In . SVG Version: 6.00 Build 0)  -->
<svg version="1.1" id="Layer_1" xmlns="http://www.w3.org/2000/svg" xmlns:xlink="http://www.w3.org/1999/xlink" x="0px" y="0px"
	 viewBox="0 0 140 47" style="enable-background:new 0 0 140 47;" xml:space="preserve">
<style type="text/css">
	.st0{fill:#FFB900;}
</style>
<g id="Layer_2_00000155148832413036522820000000326465880307110017_">
	<g id="Layer_1-2">
		<path class="st0" d="M23.5,0h93c13,0,23.5,10.5,23.5,23.5l0,0c0,13-10.5,23.5-23.5,23.5h-93C10.5,47,0,36.5,0,23.5l0,0
			C0,10.5,10.5,0,23.5,0z"/>
	</g>
</g>
<g>
	<path d="M49.9,17.2v11h5.5v1.9h-7.6V17.2H49.9z"/>
	<path d="M58.2,16.9c0.8,0,1.3,0.6,1.3,1.3s-0.6,1.3-1.3,1.3c-0.8,0-1.3-0.6-1.3-1.3S57.4,16.9,58.2,16.9z M59.1,20.8v9.3h-1.9v-9.3
		H59.1z"/>
	<path d="M62.6,20.8l2,6.7l2-6.7h1.9l-3.1,9.3h-1.8l-3.1-9.3H62.6z"/>
	<path d="M77.9,26h-6.6c0,1.4,0.8,2.6,2.3,2.6c1,0,1.9-0.6,2.4-1.6l1.6,0.6c-0.9,1.7-1.9,2.6-4.1,2.6c-3,0-4.3-2.6-4.3-4.8
		c0-2.2,1.3-4.8,4.3-4.8c3,0,4.3,2.4,4.3,4.5V26z M71.3,24.4h4.5c-0.2-1-0.9-2-2.2-2C72.3,22.4,71.5,23.2,71.3,24.4z"/>
	<path d="M93.6,21.5C92.9,19.8,92,19,90.3,19c-2.2,0-3.9,1.5-3.9,4.7c0,3.1,1.7,4.7,3.9,4.7c1.7,0,2.6-0.8,3.3-2.5l1.9,0.5
		c-0.7,2.4-2.5,3.9-5.2,3.9c-3.1,0-6-2.2-6-6.6s2.8-6.6,6-6.6c2.7,0,4.5,1.5,5.2,3.9L93.6,21.5z"/>
	<path d="M99.4,17.1v5.3c0.7-1,1.7-1.7,3.1-1.7c1.7,0,2.7,0.9,2.7,2.9v6.5h-1.9v-6c0-1.4-0.6-1.7-1.5-1.7c-1,0-2.5,1.3-2.5,3.8v3.9
		h-1.9v-13H99.4z"/>
	<path d="M111.4,24.4h1.6V24c0-1.2-0.8-1.6-1.8-1.6c-0.8,0-1.4,0.4-1.7,1.2l-1.7-0.4c0.4-1.6,1.7-2.6,3.5-2.6c2.1,0,3.7,0.9,3.7,3.7
		v5.8h-1.6l-0.2-1.2c-0.6,0.8-1.6,1.4-2.9,1.4c-1.5,0-2.8-0.9-2.8-2.8C107.4,25.5,109,24.4,111.4,24.4z M110.6,28.6
		c1.2,0,2.4-0.8,2.4-2.4V26h-1.7c-1.2,0-1.9,0.6-1.9,1.4C109.4,28.1,109.8,28.6,110.6,28.6z"/>
	<path d="M116.3,20.8h1.5v-2.6l1.9-1.2v3.7h2.4v1.7h-2.4V27c0,1,0.4,1.5,1.2,1.5c0.3,0,0.6-0.1,0.9-0.3l0.5,1.6
		c-0.5,0.2-1,0.3-1.5,0.3c-1.7,0-3-1-3-3.3v-4.4h-1.5V20.8z"/>
</g>
<path d="M29.1,12.5c-6.8,0-12.4,4.5-12.4,10.1c0,2.3,1,4.4,2.6,6.1c-0.7,1.9-2.2,3.5-2.2,3.5c-0.3,0.3-0.4,0.8-0.2,1.3
	c0.2,0.4,0.6,0.7,1.1,0.7c3,0,5.3-1.2,6.7-2.2c1.4,0.4,2.9,0.7,4.5,0.7c6.8,0,12.4-4.5,12.4-10.1S35.9,12.5,29.1,12.5z M29.1,30.4
	c-1.3,0-2.6-0.2-3.8-0.6l-1.1-0.3l-0.9,0.7c-0.7,0.5-1.6,1-2.8,1.4c0.4-0.6,0.7-1.2,1-1.9l0.5-1.4l-1-1.1C20,26.2,19,24.7,19,22.6
	c0-4.3,4.5-7.7,10.1-7.7s10.1,3.5,10.1,7.7S34.6,30.4,29.1,30.4z"/>
</svg>
