<?xml version="1.0" encoding="utf-8"?>
<!-- Generator: Adobe Illustrator 22.1.0, SVG Export Plug-In . SVG Version: 6.00 Build 0)  -->
<svg version="1.1" id="Layer_1" xmlns="http://www.w3.org/2000/svg" xmlns:xlink="http://www.w3.org/1999/xlink" x="0px" y="0px"
	 viewBox="0 0 210 295" style="enable-background:new 0 0 210 295;" xml:space="preserve">
<style type="text/css">
	.st0{fill:#FFFFFF;}
</style>
<g>
	<path class="st0" d="M49.9,150.4c-0.7-0.7-1.3-1.3-2-1.8c-4.6-3.4-5.6-8-4.5-13.2c2-9.7,7.8-16.1,17.5-18.3
		c9.8-2.2,19-0.7,26.7,6.6c2.2,2.1,4.4,4.2,6.8,6.6c0.5-1.3,1.1-2.4,1.4-3.5c0.7-2.6,1.2-5.3,2-7.9c2.2-6.8,7-10.8,13.8-12.5
		c1.9-0.5,3.7-0.9,5.6-1.3c0.7-0.1,0.9-0.4,0.9-1.1c-0.1-5-0.1-10.1-0.2-15.1c-0.2-7,1.2-13.6,3.8-20c1.7-4.2,3.5-8.5,6.1-12.3
		c2.9-4.2,6.6-7.7,10.8-10.6c4-2.7,8.2-2.5,12.5-0.9c1.1,0.4,2.2,0.8,3.3,1.2c1.6,0.6,2.1,0.4,2.9-1.1c2.2-4.2,4.4-8.3,6.7-12.5
		c3.9-7,8.5-13.4,14.8-18.3c2.5-2,5.4-3.5,8.2-5.1c0.5-0.3,1.2-0.6,1.8-0.6c2.8-0.1,5.5-0.2,8.3-0.1c0.7,0,1.5,0.7,2,1.4
		c1.8,2.3,1.8,5.1,1.4,7.8c-0.1,1-0.3,2.1-0.7,3c-0.2,0.4-0.9,0.9-1.3,0.8c-1.8-0.2-3.3-1.1-4.3-2.7c-0.8-1.2-0.6-2,0.5-2.9
		c0.6-0.5,1.3-1,1.9-1.7c-2-0.4-4-0.6-6,0.2c-6.4,2.7-11.2,7.2-15.4,12.5c-3.3,4.2-5.5,9-6.9,14.1c-0.1,0.5-0.3,1-0.3,1.4
		c0.1,0.5,0.4,1.2,0.8,1.3c1.6,0.5,3.3,0.8,5,1.1c0.1-0.1,0.2-0.2,0.2-0.3c-1.3-1.1-2.6-2.2-3.9-3.2c0.1-0.2,0.1-0.3,0.2-0.5
		c1.5,0.1,2.9,0.3,4.4,0.4c0-0.1,0.1-0.2,0.1-0.3c-1-0.8-2-1.6-3-2.5c0-0.1,0.1-0.2,0.1-0.3c1.1,0,2.2,0,3.6,0c-0.7-1.1-1.3-2-2-3.2
		c1.1,0.1,2,0.1,3.2,0.2c-0.6-0.9-1-1.7-1.6-2.5c0.9,0,1.7,0,2.7,0c-0.2-0.9-0.4-1.7-0.7-2.7c0.8,0,1.5,0.1,2.3,0.1
		c-0.3-1.2-0.5-2.4-0.9-3.8c1.3,0.7,2.3,1.3,3.6,2c-0.2-1-0.4-1.7-0.5-2.5c0.4-0.1,0.8-0.2,1.4-0.3c-0.3-1.5,0.9-1.8,1.9-2.3
		c1.5-0.7,3.1-1.4,4.6-2.1c0.1,0.1,0.2,0.2,0.2,0.3c-1.1,1.7-2.2,3.4-3.2,5.1c-1.6,2.6-3.3,5.2-5,7.8c-2.8,4.3-4.2,9.1-5.3,14.1
		c-3.8,17-3.7,34.1-3,51.3c0.3,9.2,1.5,18.4,2.9,27.5c0.7,4.9,1.4,9.9,2.3,14.8c1.2,6.9,3.5,13.5,6.1,20c2.8,7.1,5.7,14.2,8.5,21.4
		c1.2,3.1,2,3.2,4.4,0.8c0.9-0.9,1.9-1.7,2.9-2.6c0.1,0.7,0.2,1.4,0.2,2.1c0.1,5,0.1,10.1,0.3,15.1c0,1.4-0.4,2.3-1.6,3
		c-4.5,2.8-8.9,5.7-12.8,9.3c-3.7,3.4-6.9,7.2-9.7,11.4c-1.3,2-2.7,3.8-5.3,4c0,0-0.1,0.1-0.2,0.4c0.6-0.1,1.1-0.2,1.7-0.3
		c8.2-1.5,16.4-1.6,24.6-1c0.4,0,0.7,0.1,1.1,0.1c2,0.1,2.4,0.7,1.9,2.7c-0.1,0.3-0.7,0.6-1.1,0.6c-3,0.2-5.9,0.3-8.9,0.5
		c-2.3,0.1-4.5,0.3-6.8,0.4c0,0.1,0,0.2-0.1,0.4c0.6,0.1,1.3,0.4,1.9,0.3c3.1-0.1,6.2-0.2,9.2-0.3c1.2,0,2.4-0.1,3.6-0.1
		c2,0,2.9,1.6,1.8,3.3c-0.2,0.3-0.7,0.4-1.1,0.4c-2.7,0-5.4,0-8.2,0c-0.4,0-0.8,0-1.2,0.1c0,0.1,0,0.3,0,0.4
		c0.5,0.1,0.9,0.2,1.4,0.2c2.8,0,5.6,0,8.4,0c0.9,0,1.3,0.2,1.3,1.2c-0.1,1.9,0,1.9-1.9,2.7c0.6,0.7,1.6,1.4,1.9,2.3
		c0.5,1.4-0.9,1.6-1.9,1.9c0.2,0.2,0.2,0.3,0.3,0.3c1.4,0.5,2,1.7,1.4,3c-0.2,0.4-0.9,0.5-1.4,0.7c-0.8,0.3-1.6,0.5-2.4,0.7
		c0,0.2,0.1,0.3,0.1,0.5c1,0,1.9,0,2.9,0c0.6,0,0.9,0.1,0.9,0.8c0,0.6,0.2,1.3-0.8,1.3c-0.9,0.1-1.7,0.1-2.7,0.2
		c-0.1,1.1,0.5,1.5,1.4,1.5c0.8,0,1.6-0.1,2.5,0.1c-0.7,0.7-1.5,1.4-2.1,2c0.6,0.5,1.5,0.9,1.5,1.3c0.1,1-1,1-1.7,1.1
		c-2.5,0.3-4,1.7-4.5,4.3c0.6,0.2,1.2,0.4,2,0.7c-0.4-3.3,2.3-3.1,4-4c0.8,1.9,0.6,2.2-2,3.5c0.6,0.1,1,0.2,1.3,0.3
		c0.4,0.2,1.1,0.5,1.1,0.7c0,0.5-0.3,1.1-0.7,1.4s-1,0.4-1.6,0.8c0.5,0.1,1.1,0.2,1.6,0.4c0.8,0.2,0.9,0.6,0.3,1.2
		c-0.5,0.5-1.1,1-1.9,1.7c2.4,0.5,2,2.2,2,3.7c0,1.4,0,2.7,0,4.1c-0.1,0.1-0.2,0.1-0.3,0.2c-1.1-1.2-2.1-2.5-3.1-3.8
		c-0.1-0.1,0.3-0.7,0.6-0.8c0.5-0.1,1,0,1.5,0c0-0.1,0.1-0.2,0.1-0.3c-0.9-0.8-1.8-1.5-2.9-2.4c-0.2,0.5-0.3,0.8-0.4,1.1
		c-0.3,2.5-1.7,4.2-3.7,5.4c-1.8,1-2.7,2.2-2.7,4.4c0,2.7-2.9,5.2-5.7,5.1c-1.6-0.1-3,0.1-4.4,1.2c-1.2,0.9-2.9,1.3-4.4,1.3
		c-3.1,0.1-6.3,0.1-9.5-0.2c-3.6-0.3-6.6-1.9-9-4.7c-3.4-3.8-5.5-8.3-6.8-13.2c-1-3.7,0.3-6.9,2.9-9.5c3.8-3.9,8.5-5.2,13.8-4.1
		c2,0.4,3.4,1.8,4.6,3.3c1.2,1.6,2.3,3.3,3.5,4.9c0.4,0.6,0.4,1-0.1,1.5c-0.8,1-1.6,2-2.4,3c-1.9,2.4-6,3.6-8.7,0.4
		c-1.2-1.4-2.5-2.7-1.8-4.8c0.1-0.2-0.4-0.7-0.6-0.7c-2.9-0.6-5.5,2.4-4.5,5.2c0.2,0.4,0.9,0.7,1.4,1c1.1,0.6,2.5,1,3.5,1.7
		c2.7,2,5.7,3.1,9.1,2.5c0.6-0.1,1.1-0.6,1.5-1.1c1.4-1.7,2.7-3.5,5-4.3c0.5-0.2,0.9-0.6,1.2-1.1c1-1.9,2-3.8,3-5.7
		c0.5-1.1,1.3-1.8,2.9-1.9c-0.9-0.7-1.6-1.2-2.4-1.9c1-0.4,1.7-0.6,2.5-0.9c-3.5-4.6-5.8-10-11.3-12.8c-11.8-6.3-29.4-2.5-34.8,13.4
		c-2.4,7.1-1,13.8,2.6,20.2c1.3,2.3,2.8,4.6,5,6.2c1.2,0.9,2.6,1.5,4.1,2.4c-1.3,0.2-2.4,0.5-3.5,0.6c-4.1,0.5-7.5-1.1-10.7-3.5
		c-1.2-0.9-1.3-2.2-1.1-3.5c0.2-1-0.1-1.4-1.1-1.9c-2.8-1.2-4.7-3.3-5-6.5c-0.1-0.7,0-1.4,0.2-2c0.5-1.6,0.2-2.9-1-4.2
		c-0.7-0.8-1.4-1.7-1.9-2.6c-0.9-1.6-0.9-3.2,0.1-4.7c0.5-0.7,1.2-1.3,1.6-2.1c0.3-0.5,0.6-1.3,0.5-1.8c-0.8-3.3,0.2-6,2.4-8.3
		c1.6-1.7,3.3-3.2,5-4.9c0.3-0.3,0.3-0.8,0.5-1.3c-0.4,0.1-1,0.1-1.3,0.4c-10.2,9.3-21.1,17.9-32.1,26.3
		c-8.5,6.4-17.2,12.4-26.4,17.6c-3.7,2.1-7.7,3.7-12,4.5c-3.3,0.6-6.7,0.7-10.1,0.9c-1.2,0.1-2.3-0.1-3.5,0
		c-10.7,0.3-19.8-3.6-27.8-10.5c-4.4-3.8-8.4-8-11.3-13.1c-3-5.5-4.6-11.5-5.2-17.7c-0.3-3.7-0.3-7.3-0.4-11c0-0.3,0-0.6,0.1-0.8
		c4.5-12.6,12.6-22.6,22.2-31.5c5.4-5,10.8-10.1,16.1-15.3c4.9-4.8,7.2-10.7,7-17.5c-0.1-3.4-0.7-6.8-3.6-9c-1.6-1.2-3.4-2-5.2-2.9
		c-2.1-1-2.2-1.5-0.8-3.3c2-2.5,4.3-4.4,7.6-4.7C49.5,150.7,49.6,150.6,49.9,150.4z M58.1,232.8c-0.9-1.2-2-2-1.5-3.5
		c0-0.1-0.1-0.3-0.2-0.4c-1.8-2.6-3.9-4.8-7-5.8c-4.3-1.4-8.7-1.4-13.1-0.1c-3.7,1-6.9,2.6-8.2,6.6c-0.1,0.3-0.8,0.6-1,0.5
		c-1-0.5-1.5,0.1-1.9,0.9c-1.9,3.3-3.5,6.8-4.5,10.5c-1.2,4.5-0.7,8.5,2.7,12c1,1,1.6,2.3,2.4,3.4c1.5,2.2,2.8,4.5,4.6,6.4
		c9.1,9.8,23.7,12.9,36.5,7.7c8.1-3.3,15.7-7.7,23.1-12.3c7.4-4.6,14.7-9.5,22.1-14.1c4.7-2.9,9.6-5.4,14.4-8.2
		c7.7-4.6,15.2-9.4,23.6-12.8c0.2-0.1,0.4-0.3,0.6-0.4c-0.5-0.2-1.1-0.2-1.5,0c-2.1,0.7-4.2,1.4-6.1,2.4
		c-7.1,3.8-14.2,7.7-21.3,11.6c-4.3,2.4-8.8,3.8-13.7,3.5c-2.6-0.1-5.2-0.3-7.8-0.5c-4-0.4-7.3-2.2-9.9-5.3
		c-3.1-3.5-4.9-7.6-5.8-12.2c-1.3-7.2,3.6-14.8,10.7-16.6c1.1-0.3,2.3-0.4,3.7-0.7c-0.4-0.4-0.6-0.6-0.8-0.7
		c-1.7-1.2-3.6-2.3-5.2-3.6c-6.4-5-8.8-11.5-7.3-19.5c0.1-0.7,0.3-1.4,0.4-2.1c-0.8,0.5-1.3,1.2-1.9,1.8c-6.1,6.3-12.6,12-19.7,17.2
		c-3.7,2.7-7.5,5.4-11.1,8.2c-1.4,1.1-2.7,2.5-4.9,2.9c2,0.9,3.5,1.8,5.4,1.3c0.5-0.1,1.1-0.2,1.5-0.1c3.4,1,6.7,1.9,9,4.9
		c1.7,2.2,3.5,4.4,5.3,6.5c1.3,1.5,2.3,3.1,2.5,5.1s-0.2,3.8-2,5.2c1.6,0.4,2.5,1.1,2.9,2.5c0.8,3.2,0.1,5.9-2.4,8.2
		c-0.8,0.7-1.4,1.4-0.9,2.6c0.6,1.6,0.2,2.9-1,4.1c-2.2,2.1-4.1,4.3-6.2,6.5c-1,1-2.1,2.1-3.4,2.8c-1.3,0.8-2.9,1.2-4.4,1.6
		c-0.5,0.1-1.2-0.3-1.8-0.5c-0.5-0.2-0.9-0.5-1.6-1c0,0.8,0.1,1.2,0.1,1.8c-1.1-0.1-2.1-0.1-3.2-0.2c-1.9-0.3-3.9-0.5-5.8-1.1
		c-9.1-2.6-13.8-12.1-10.2-20.8c1.4-3.5,4.1-6.1,6.8-8.7c1.5-1.4,2.9-1.8,4.7-1.2c0.1,0,0.2,0.1,0.2,0.1c2.5,0.1,4.8,1.9,7.6,0.8
		c-0.2,1.1-0.4,2.1-0.7,3.4c1.3-0.4,2.4-0.8,3.6-1.2c-0.2,0.7-0.5,1.2-0.6,1.7c-0.1,0.6,0,1.2,0.8,0.8C56,234,57,233.4,58.1,232.8z
		 M136.4,66.9c-0.7,2.6-1.3,5.1-1.9,7.5c-2,7.9-2.3,16-1.2,24.1c1.1,8.3,3.1,16.4,5.5,24.4c2.2,7.5,4.6,14.9,8.9,21.5
		c7.1,10.8,14.5,21.5,21.8,32.3c0.7,1.1,1.7,1.3,2.9,0.9c2.7-0.7,3.4-0.4,5,2c0.2,0.4,0.5,0.7,0.7,1.1c2.2,3.3,4.4,6.7,6.6,10
		c0.3,0.4,0.7,0.6,1.1,1c0.1-0.1,0.2-0.2,0.3-0.2c-0.3-0.6-0.6-1.2-0.9-1.8c-5-8.9-10.1-17.7-14.9-26.7c-4.5-8.3-7.8-17.2-9.7-26.5
		c-1.3-6.4-2.5-12.8-3.6-19.2c-0.9-5.2-1.8-10.4-2.3-15.6c-0.4-4-0.5-8.1-0.4-12.2c0.1-7.4,0.5-14.8,0.8-22.2
		c0.1-2.3,0.4-4.7,0.6-7.2c-1.1,0.1-2.1,0.2-3.1,0.4c-1.7,0.3-3.2-0.2-4.5-1.4c-1-0.9-1.3-2.1-0.7-3.3s1.5-2.3,3-2.4
		c1-0.1,1.1-0.5,0.7-1.3c-1.4-3.1-5-4-8-2.1c-6.8,4.5-11.7,10.5-14.4,18.2c-0.9,2.7-2,5.3-1.9,8.2c0,0.3,0.2,1,0.4,1
		c1.4,0.1,2.8,0,4.2,0c0-0.1,0-0.2,0-0.3c-0.6-0.3-1.2-0.6-1.8-0.9s-1.1-0.6-1.6-0.9c0-0.2,0.1-0.4,0.1-0.6c1.5,0,3,0,4.4,0
		c0-0.1,0.1-0.3,0.1-0.4c-0.9-0.6-1.9-1.2-2.7-1.9c-0.4-0.3-0.6-0.7-0.9-1.1c0.5-0.1,0.9-0.3,1.4-0.2c1.2,0.1,2.3,0.3,3.4,0.5
		c0-0.1,0.1-0.2,0.1-0.3c-1-0.9-2-1.8-3.1-2.9c1-0.2,1.7-0.3,2.7-0.5c-0.8-0.6-1.4-1.1-2-1.5c0.1-0.1,0.1-0.2,0.2-0.3
		C133.3,66.4,134.8,66.7,136.4,66.9z M179.2,201.3c0.1-0.1,0.2-0.2,0.3-0.3c-0.3-0.4-0.7-0.8-1.1-1.2c-6.3-6.8-12.6-13.6-18.9-20.5
		c-6-6.6-12.1-13.2-17.9-20c-9-10.5-15.5-22.5-19.7-35.8c-0.7-2.3-1.6-4.6-2.4-7.1c-1.7,1.1-2.7,3.2-5.2,2c-3.1-1.5-2-3.8-1.2-6.1
		c-0.5,0-0.7,0-0.9,0.1c-4.2,1.1-7,3.8-8.2,7.8c-1.5,5.2-1.7,10.6-1.5,16c0,0.1,0.1,0.2,0.2,0.4c2-0.4,4-0.8,6-1.2
		c-1.7-1-3.8-0.6-5.2-2.2c1.7-1.6,4.3-0.5,6.1-2.3c-2.1-0.6-4.1-0.1-5.9-0.7c0-0.2,0-0.3,0-0.5c1.7-0.5,3.4-1.1,5.4-1.7
		c-1.8-0.6-3.3-1-4.7-1.5c0-0.2,0-0.4,0.1-0.6c1.8-0.2,3.7-0.4,5.5-0.5c0-0.1,0-0.3,0.1-0.4c-1.3-0.5-2.5-1-3.8-1.6
		c-0.4-0.2-0.7-0.6-1.1-0.9c0.5-0.1,0.9-0.3,1.4-0.4c0.5,0,1,0.1,1.6,0.1c0.8,0.1,1.7,0.1,2.8,0.2c-0.6-0.9-1.1-1.5-1.6-2.2
		c3.2-0.3,3.9,0.4,3,3.2c-0.9,2.8-1.3,5.7-0.6,8.6c0.9,4,1.8,7.9,2.9,11.9c2,7.3,5.5,13.7,11.3,18.5c6.9,5.7,14,11.2,21,16.7
		c4,3.1,8.2,6,12.3,9c0.9,0.7,1.8,1,2.9,0.5c2.4-1.1,2.7-0.9,4.6,0.9c3.7,3.7,7.6,7.2,11.4,10.8
		C178.3,200.8,178.8,201.1,179.2,201.3z M167.3,216.2c0-0.1,0.1-0.3,0.1-0.4c-1.7-0.8-3.3-1.7-5.1-2.3c-2.8-1-5.8-1.7-8.6-2.5
		c-6.1-1.8-12.2-2.7-18.7-2.5c-8.5,0.3-17.1,0-25.7,0c-0.8,0-1.5-0.1-2.4-0.2c0.4,1.5,0.7,2.7,1,4c0.9,3.4-0.8,6.6-4,7.7
		c-2.6,0.9-5.2-0.4-5.7-2.9c-0.3-1.7,0.5-2.8,1.7-3.8c-2.1-1.3-5.4-0.8-6.6,1c0.6,0.5,1.3,0.9,2.1,1.6c-0.9,0.1-1.5,0.1-2,0.2
		c-0.9,0.1-1.5,0.5-1.5,1.5s0.9,0.9,1.5,1.1c0.6,0.2,1.2,0.2,1.8,0.3c0,0.1,0,0.2,0,0.4c-1.1,0.6-3,0-3.5,2.1c1.9,0,3.6,0,5.4,0
		c0,0.2,0,0.3,0.1,0.5c-0.8,0.3-1.6,0.6-2.4,0.9c-0.8,0.3-1.9,0.2-2.2,1.6c2-0.5,3.9-0.9,6-1.4c-0.2,0.9-0.4,1.4-0.6,2.1
		c0.8-0.6,1.4-1.1,2-1.6c1.1,0.9,2.2,1.8,3.3,2.7c2.2,1.9,4.7,2.6,7.5,2c3.3-0.7,6.6-1.4,9.8-2.4c9.4-2.9,18.8-5.9,28.2-8.8
		c1.4-0.4,2.9-0.9,4.4-1.4c-0.5-0.4-0.8-0.6-1.1-0.9c1-0.9,1.8-1,3-0.1c0.8,0.6,1.5,0.7,2.4,0.3c0.4-0.2,1.1-0.3,1.6-0.1
		c1.4,0.4,2.7,0.9,4,1.5C164.6,217,166,217,167.3,216.2z M93.8,170.1c2.3-1.4,4.7-1.9,7.2-1.7c3.8,0.3,6.4,2.2,7.4,5.6
		c1,3.7-0.2,7.5-3.2,9.5c-0.6,0.4-1.5,0.6-2.1,0.4c-1.4-0.4-2.7-1.1-3.9-1.8c-1.8-1.1-1.9-2.5-0.4-4c0.7-0.6,1.4-1.1,2.1-1.7
		c-2-1.8-6.7-0.2-8.2,2.7c0.9,0.5,1.8,0.9,3,1.5c-0.5,0.1-0.7,0.2-0.8,0.2c-0.9,0.2-1.9,0.3-2.8,0.7c-0.4,0.2-0.5,1-0.8,1.5
		c0.4,0.2,0.8,0.4,1.2,0.5c1,0.1,1.9,0,2.9,0c0,0.1,0,0.2,0.1,0.3c-0.7,0.3-1.5,0.5-2.2,0.8c-0.8,0.3-1.5,0.8-1.4,1.9
		c0.8-0.1,1.5-0.3,2.2-0.4c1.2-0.1,2.4-0.3,3.6-0.3c2.5,0.1,4.5,1.3,6.3,2.9c2.1,1.8,4.3,3.6,7,4.3c4.2,1.2,8.4,2.4,12.6,3.2
		c9.2,1.7,18.6,2.9,27.6,5.5c1,0.3,1.8,0,2.5-0.6c1.5-1.4,1.5-1.4,3.4-0.3c4.8,2.8,9.6,5.5,14.5,8.3c0.3,0.2,0.6,0.3,0.9,0.4
		c0.1-0.1,0.1-0.2,0.2-0.2c-0.3-0.4-0.5-0.8-0.8-1.2c-2.7-2.7-5.6-5.2-9.1-6.8c-6.8-3.3-13.6-6.5-20.4-9.7c-6.3-2.9-12.8-5.5-19-8.6
		c-11.4-5.8-19.3-14.7-23.3-26.9c-0.2-0.7-0.5-1.3-0.8-1.9c-0.1,0-0.2,0-0.3,0C97.3,159.4,95.6,164.7,93.8,170.1z M61,186
		c0.1,0.1,0.3,0.2,0.4,0.4c0.4-0.2,0.9-0.4,1.3-0.7c0.6-0.6,1.2-1.3,1.8-1.9c2.1-2,4.2-4,6.4-6c1.3-1.2,2.8-2.3,3.9-3.6
		c3.3-3.8,5.6-8.2,7.2-12.9c1.3-3.8,1.9-7.6,0.5-11.5s-4.5-6.8-6.8-10c-0.1-0.1-0.2-0.2-0.4-0.3c-1.9-0.9-3.9-1.9-5.8-2.8
		c-1.5-0.6-3-0.3-4.4,0.6c1.3,3.7,1.3,4.3,0.7,6.2c-1.4,4.2-3.8,7.3-8.4,8.1c-0.7,0.1-1.4,0.4-2.4,0.8c0.7,0.4,1,0.6,1.4,0.8
		c1.6,0.7,3.1,1.4,4.7,2.2c2.8,1.4,3.8,3.7,2.9,6.6c-0.5,1.5-1.1,3-1.7,4.5c-0.5,1.1-0.1,1.4,0.9,1.6c1.8,0.2,3,1.2,3.3,3
		c0.2,1,0.2,2.2-0.1,3.2c-1.1,3.6-2.5,7.1-4.5,10.3C61.4,184.9,61.2,185.5,61,186z M84.8,147.2c0,0.1,0.1,0.2,0.1,0.2
		c1-0.1,2-0.2,2.9-0.5c0.4-0.1,0.8-0.7,0.9-1.1c0.2-2.2,0-4.5-0.9-6.6c-4.9-11.5-19.3-17-30.6-11.6c-4.1,2-6.6,5.4-7.4,9.9
		c-0.1,0.4,0.1,1.1,0.4,1.2c0.4,0.2,1,0.1,1.7,0.2c-0.6-1-1-1.6-1.5-2.4c0.4-0.1,0.7-0.1,0.9-0.1c1-0.1,2.3,0.4,2.6-1.3
		c0-0.2,0.6-0.3,0.9-0.4c2.5-0.4,2.5-0.4,2.8-2.8c0-0.1,0.1-0.1,0.2-0.3c0.8,0.6,1.6,1.2,2.5,1.9c0.2-0.4,0.4-0.6,0.5-0.8
		c0.3-1,0.8-1.5,1.9-0.8c0.2,0.1,0.8-0.1,1-0.3c0.6-0.7,1.2-0.8,2-0.7c1.2,0.3,2.5,0.3,3.6,0.7c1.6,0.5,3.2,1.1,4.7,1.9
		c1,0.5,1.8,1,2.9,0.2c0.2,0.7,0.5,1.3,0.6,1.9c0.2,0.9,0.6,1,1.4,0.7c0.6-0.2,1.3-0.4,2.2-0.6c-0.5,1.2-0.8,2.1-1.2,3.1
		c1.1-0.1,2-0.1,3.1-0.2c-0.6,1.2-1.1,2.2-1.8,3.3c1.9-0.3,3.5-0.6,5.1-0.9c0,0.1,0.1,0.2,0.1,0.3c-1.2,1-2.4,1.9-3.6,2.9
		c0.1,0.1,0.1,0.3,0.2,0.4c1.4-0.5,2.8-0.6,4.3,0.3C86.6,145.9,85.7,146.5,84.8,147.2z M36.3,243.7c0,0.1,0.1,0.3,0.1,0.4
		c2-0.9,3,0.5,4.3,1.4c0.7,0.5,1.3,1,2,1.2c1,0.3,2.1,0.6,3,0.3c2.7-0.9,4.7-2.7,5.6-5.5c0.1-0.5,0-1.4-0.2-1.5
		c-0.7-0.4-1.4,0.1-1.8,0.8c-0.4,0.7-0.7,1.3-1.2,1.9c-2.4,3-5.8,2.6-7.4-0.8c-0.3-0.7-0.7-1.4-1.1-2.3
		C38.4,241.1,37.4,242.4,36.3,243.7z M171.9,51.3c0-0.1,0-0.2,0.1-0.4c-1.7-1.3-3.4-2.6-4.9-3.8c-0.7,1.8-1.5,3.5-2.1,5.1
		c-0.2,0.5-0.2,1.1-0.3,1.6c-0.1,0.8,0.2,1.2,1.1,1.1c1.6-0.2,3.2-0.4,4.9-0.6c0.2,0,0.5-0.2,0.9-0.3c-1.5-0.8-2.8-1.6-4.2-2.3
		c0.1-0.2,0.1-0.3,0.2-0.5C169,51.3,170.5,51.3,171.9,51.3z M170.8,57.9c0-0.2,0-0.3,0-0.5c-2-0.7-4-1.3-6.2-2.1
		c-0.5,2.3-1,4.4-1.5,6.8c1.5-0.5,2.7-0.9,4-1.4c-0.8-0.6-1.5-1.1-2.2-1.6c0-0.1,0.1-0.3,0.1-0.4C167,58.4,168.9,58.2,170.8,57.9z
		 M152,227.7c0.7,0,1.3,0,1.8-0.1c1.8-0.4,3.6-0.5,5.2-1.2c2.9-1.2,5.8-1.5,8.6,0c0.4,0.2,1,0.2,1.7,0.3
		C166.7,223.4,156.2,224,152,227.7z M44.3,207.6c-0.1,0-0.2,0-0.2,0c-1.6,2.1-3.6,2.3-6.1,1.6c-2.2-0.6-4.8,0.9-5.7,2.8
		c0.1,0,0.3,0.1,0.4,0c2.7-1.1,5.5-1.4,8.4-1C43,211.2,44.2,209.8,44.3,207.6z M130.5,87.5c-1.1-1.4-2.9-2.1-4.2-1.6
		c-0.6,0.3-1.2,1-1.3,1.5c-0.1,1.4,0.1,2.7,0.3,4.3c1.7-0.2,3.2-0.4,4.7-0.7c0-0.1,0.1-0.3,0.1-0.4c-0.9-0.3-1.8-0.6-2.7-1
		c-0.6-0.3-1-0.7-1.5-1.1c0.6-0.4,1.2-0.8,1.9-1c0.3-0.1,0.8,0,1.2,0C129.4,87.5,129.8,87.5,130.5,87.5z M108.8,195.3
		c-2.2-1.9-4.3-3.6-6.6-5.5c-0.4,1.1-0.8,2.1-1.2,3.1c1.1-0.3,1.9-0.6,2.9-0.8c0.1,0.8,0.2,1.4,0.2,2.1c0.5,0,0.9-0.2,1.2-0.1
		c0.5,0.1,1.1,0.4,1.2,0.7C106.9,196.4,107.7,196,108.8,195.3z M169.9,72.6c0-0.2,0-0.4,0-0.6c-2.5-0.4-4.9-0.9-7.5-1.3
		c0,0.9,0,1.6,0,2.5C165,73,167.5,72.8,169.9,72.6z M169.1,65.5c0-0.2,0.1-0.4,0.1-0.5c-2-0.8-4-1.3-6.2-1.9c0,0.8-0.1,1.5,0,2.1
		c0.1,0.4,0.7,0.9,1,0.9C165.8,65.9,167.4,65.7,169.1,65.5z M135.3,177.3c0.2,0,0.2,0.1,0.3,0.1c1.2-0.3,2.4-1.2,3.3,0.5
		c0,0.1,0.5,0,0.5-0.1c0.1-0.2,0.1-0.5,0-0.6c-1.9-1.5-3.9-2.9-6-4.5c-0.1,1.1-0.2,1.9-0.3,2.8c0.9,0.1,1.5,0.1,2.3,0.2
		C135.3,176.3,135.3,176.7,135.3,177.3z M172.6,118.4c0-0.1,0-0.2,0-0.3c-0.5-0.1-1-0.2-1.4-0.2c-1.4,0.1-2.7,0.2-4.1,0.3
		c-0.7,0.1-1.4,0.1-2.1,0.3c-0.3,0.1-0.5,0.5-0.8,0.8c0.3,0.3,0.6,0.6,0.9,0.8c0.3,0.1,0.6,0,0.9-0.1c2-0.4,3.9-0.8,5.9-1.3
		C172.2,118.7,172.4,118.5,172.6,118.4z M170.6,108.2c-0.1-0.1-0.2-0.2-0.2-0.2c-1.9-0.2-3.7-0.4-5.6-0.4c-1,0-1.4,0.7-1.4,1.7
		C164.8,109.8,168.9,109.2,170.6,108.2z M58.8,193.5c-2.1,1.5-4.4,2.2-6.1,4.1C55.2,198.6,58.1,196.6,58.8,193.5z M172.5,115.1
		c0-0.2,0-0.3,0-0.5c-0.4-0.1-0.8-0.4-1.2-0.4c-2.2,0.3-4.4,0.6-6.6,1c-0.3,0-0.5,0.4-0.7,0.7c0.3,0.2,0.6,0.5,0.8,0.5
		C167.4,116.1,170,115.6,172.5,115.1z M103.5,141.2c2-0.9,4-1.7,6.1-2.6c-2.3,0-4.3,0-6.5,0C103.2,139.6,103.4,140.5,103.5,141.2z
		 M172.2,47.1c-1.5-2.2-4.5-3-5.9-1.6C167,46.8,169.3,47.4,172.2,47.1z M161.8,93.2c2.7-0.2,5.1-0.4,7.8-0.6
		C167.1,91,163.3,91.3,161.8,93.2z M29.9,214.9c-3.2-0.8-6.3,0.5-6.5,2.6C25.5,216.7,27.6,215.9,29.9,214.9z M124.6,98.7
		c2.1-0.5,4-0.9,6.2-1.4C128,95.8,125.4,96.4,124.6,98.7z M130.9,84c-0.8-1.2-2.1-1.8-3.3-1.7c-0.9,0.2-1.7,0.5-2,1.7
		C127.4,84,129.1,84,130.9,84z M168.1,83.2c0-0.1,0.1-0.2,0.1-0.3c-0.2-0.1-0.5-0.4-0.7-0.4c-1.6-0.1-3.3-0.3-4.9-0.2
		c-0.8,0-0.9,0.7-0.8,1.6C163.9,83.5,166,83.4,168.1,83.2z M173.6,124.8c-0.6-0.1-0.8-0.1-1-0.1c-1.9,0.2-3.9,0.5-5.8,0.8
		c-0.3,0-0.6,0.4-0.8,0.7c0.3,0.2,0.7,0.5,1,0.4c2-0.3,3.9-0.8,5.8-1.2C173,125.3,173.2,125.1,173.6,124.8z M130.2,94.3
		c0-0.2,0-0.3,0-0.5c-1.7-0.2-3.4-0.4-5-0.5c-0.3,0-0.7,0.5-0.8,0.9c0,0.2,0.5,0.8,0.8,0.8C126.8,94.9,128.5,94.6,130.2,94.3z
		 M161.9,79.8c0.1,0.2,0.2,0.3,0.2,0.5c2.2-0.3,4.4-0.7,6.6-1c0-0.2,0-0.3,0-0.5c-1.7-0.1-3.4-0.2-5.1-0.1
		C163,78.7,162.5,79.4,161.9,79.8z M163.8,113.1c2.2-0.4,4.2-0.8,6.3-1.2C168.2,110.5,164.3,111.4,163.8,113.1z M131.4,103.1
		c-1.2-0.6-5.2,0.1-6,1C126.5,104.9,130.4,104.2,131.4,103.1z M130.8,80.6c0-0.1,0-0.2,0-0.2c-0.9-0.3-1.7-0.6-2.6-0.9
		c-2.2-0.8-1.7-1-2.5,1.3c0,0.1,0,0.1,0.1,0.3c1.4-0.1,2.9-0.2,4.4-0.3C130.4,80.7,130.6,80.6,130.8,80.6z M45.7,204.1
		c2.3,1.2,5-0.2,5.1-2.4C49.1,202.5,47.5,203.2,45.7,204.1z M169,100.9c0-0.1,0-0.3,0-0.4c-2.2,0.1-4.3,0.2-6.5,0.3
		c-0.1,1.2-0.1,1.2,0.9,1.1c1.6-0.2,3.2-0.5,4.8-0.8C168.5,101.1,168.8,101,169,100.9z M105.2,147.2c1.6,0.6,6.5-0.6,7-1.7
		C109.8,146,107.4,146.2,105.2,147.2z M171.5,121.5c0-0.1-0.1-0.3-0.1-0.4c-2.1-0.4-4,0.4-6,1c-0.2,0.1-0.2,0.6-0.3,1.1
		C167.4,122.6,169.4,122,171.5,121.5z M174.4,135c0-0.1-0.1-0.3-0.1-0.4c-1.9,0.5-3.9,0.9-6,1.4C169.5,137.1,173.3,136.3,174.4,135z
		 M162,89.1c0.6,0.4,0.9,0.9,1.2,0.8c1.7-0.2,3.4-0.4,5.1-0.7c0-0.1,0-0.2,0-0.4C166.3,89.1,164.3,88,162,89.1z M163.5,104.1
		c0.6,1,6.3,0.8,7.4-0.4C168.3,103.8,165.9,104,163.5,104.1z M167.3,130.1c2.1-0.4,3.9-0.8,5.7-1.2
		C171,127.8,168.7,128.3,167.3,130.1z M126.5,111.7c1.7-0.5,3.2-1,4.7-1.5c0-0.1-0.1-0.2-0.1-0.3c-1.5,0-3,0-4.6,0
		C126.5,110.5,126.5,111,126.5,111.7z M162.6,98.2c0,0.1,0,0.2,0,0.3c2.2,0.8,4.2,0.4,6.2-0.5c0-0.1,0-0.2,0-0.4
		C166.8,97.8,164.7,98,162.6,98.2z M167.7,133.4c1.9-0.4,3.7-0.8,5.6-1.2C170.8,131.3,168.2,131.8,167.7,133.4z M124.8,101.3
		c0.1,0.2,0.3,0.3,0.4,0.5c1.5-0.5,3.1-1,4.6-1.5c-1.4-0.2-2.7-0.2-4-0.1C125.5,100.2,125.2,100.9,124.8,101.3z M93.1,189.1
		c0.1,0.2,0.1,0.4,0.2,0.5c1.6-0.5,3.1-1,4.7-1.5c0.2-0.1,0.4-0.5,0.3-0.6c-0.1-0.2-0.5-0.4-0.6-0.4
		C96.2,187.7,94.7,188.4,93.1,189.1z M127.9,118.3c1.7-0.6,3.3-1.2,4.9-1.8C130.4,115.9,128.1,116.8,127.9,118.3z M104.1,144.8
		c1.1-0.7,2-1.3,2.9-1.9c0-0.1-0.1-0.2-0.1-0.3c-1-0.1-2.1-0.2-3.2-0.4C103.8,143.2,103.9,143.9,104.1,144.8z M131.4,113.8
		c0-0.1,0-0.2,0-0.3c-1.1-0.5-2.3-0.6-3.5-0.1c-0.3,0.1-0.5,0.6-0.7,1c0.4,0.1,0.7,0.4,1.1,0.3C129.3,114.4,130.3,114.1,131.4,113.8
		z M141,233.5c2.2,0.1,4.2-1.6,3.8-3.2C143.6,231.4,142.4,232.4,141,233.5z M176.4,143.9c-0.1-0.2-0.1-0.4-0.2-0.6
		c-1.6,0.4-3.3,0.7-4.8,1.5c0.1,0.2,0.1,0.4,0.2,0.5C173.2,144.9,174.8,144.4,176.4,143.9z M86.1,150.9c1.2-0.2,2.2-0.4,3.2-0.6
		C88.4,148.8,87.3,149,86.1,150.9z M169.8,86.3c-1.6-1.2-2.7-1.3-3.8-0.2C167.2,86.1,168.3,86.2,169.8,86.3z"/>
	<path class="st0" d="M180.3,222.3c0.9-0.4,1.6-1,2.4-1c5.7-0.2,11.3-0.3,17-0.4c1.4,0,1,0.9,1.1,1.7c0.1,1-0.4,1.2-1.3,1.2
		c-5.2,0.1-10.5,0.2-15.7,0.4C182.3,224.3,181.4,223.7,180.3,222.3z"/>
	<path class="st0" d="M200.7,215.6c0,1.2,0.1,2.3,0,3.3c0,0.3-0.6,0.7-0.9,0.7c-3.9,0-7.8,0-11.7-0.1c-1.4,0-2.2-0.8-2.3-2
		c0-0.3,0.3-0.9,0.5-0.9C191.1,216.3,195.8,216,200.7,215.6z"/>
	<path class="st0" d="M195.9,214.3c-1.3,0-2.6,0-3.9,0c-1,0-1.6-0.4-1.6-1.4c-0.1-1.1,0.8-1.1,1.6-1.1c2.6,0,5.2,0,7.8-0.1
		c1.3,0,1.1,0.8,1.2,1.7c0.1,1-0.5,1-1.2,0.9C198.4,214.3,197.2,214.3,195.9,214.3L195.9,214.3z"/>
	<path class="st0" d="M193.9,209.7c0.8-1,5.4-1.9,6.2-1.3c0.4,0.4,0.6,1,0.9,1.5c-0.5,0.2-1,0.5-1.4,0.5c-1.5-0.1-3.1-0.3-4.6-0.5
		C194.6,209.9,194.3,209.8,193.9,209.7z"/>
	<path class="st0" d="M201.1,206.9c-1.1,0-2,0-2.9-0.2c-0.3,0-0.5-0.4-0.8-0.6c0.2-0.2,0.4-0.6,0.7-0.7
		C200,204.5,200.6,204.8,201.1,206.9z"/>
</g>
</svg>
