<?xml version="1.0" encoding="utf-8"?>
<!-- Generator: Adobe Illustrator 19.1.0, SVG Export Plug-In . SVG Version: 6.00 Build 0)  -->
<svg version="1.1" id="Layer_1" xmlns="http://www.w3.org/2000/svg" xmlns:xlink="http://www.w3.org/1999/xlink" x="0px" y="0px"
	 viewBox="373 -42.6 755.4 94.6" style="enable-background:new 373 -42.6 755.4 94.6;" xml:space="preserve">
<style type="text/css">
	.st0{fill:#FFC627;}
</style>
<title>Artboard 1</title>
<g>
	<path class="st0" d="M488.6,2.6c0-5.6-4.7-10.7-16-10.7v38.5l8.5,1.5v2.2h-20.7v-2.2l5.7-1.5V-6.5l-5.7-1.7v-2.2l14.7-0.1
		c13.5-0.1,20.4,4.8,20.4,12c0,10-10.9,14.4-19.8,13.8v-2.2C483.5,12.5,488.6,9,488.6,2.6z"/>
</g>
<g>
	<path class="st0" d="M500,31.8l4.2-1.4V7.9L499.7,7V5l9.1-3.2h0.3l0.4,8.4h0.1l2.1-2.9c3.2-4.4,4.9-5.6,7.1-5.6
		c1.6-0.2,3.1,1,3.3,2.7c0,0.2,0,0.4,0,0.7c-0.2,1.7-0.9,3.4-2.1,4.6l-5.2-1.7c-1.9,1.5-3.6,3.2-5.1,5.1v17.7l5.9,1.1v2.3H500V31.8z
		"/>
</g>
<g>
	<path class="st0" d="M525.3,27.3c0-5.4,3.9-7.8,10.8-9.6l6.9-1.8v-3.5c-0.1-5.2-2.8-7.8-6.4-7.8c-1.5,0-2.9,0.4-4.2,1.2l-0.3,6.6
		c0,0-1.7,0.2-2.7,0.2c-2.1,0-3.2-1.1-3.2-2.9c0-3.1,5.9-8,12.8-8s9.7,3.1,9.7,9.7v18.2c0,1.3,0.3,1.8,2.2,1.8h3.3v1.9
		c0,0-3.9,1.7-6.4,1.7c-3.4,0-4.8-2.3-4.8-5.2h-0.2c-3.8,3.6-5.4,5.4-9.6,5.4C529.7,35.1,525.3,32.7,525.3,27.3z M542.9,27v-8.8
		l-6.4,2.1c-3.2,1.1-5.2,2.3-5.2,5.2c0,3.4,2.6,5.2,5.5,5.2C539.3,30.4,541.6,29.1,542.9,27z"/>
</g>
<g>
	<path class="st0" d="M560.6,27.6L560.8,6h-4.7V3.2L561,2l2.9-8h2.3v8.6h9v3.6h-8.8v18.7c0,5.4,1.9,5.8,4.5,5.8c1.7,0,3.3-0.2,5-0.5
		l0.4,1.7c-2.6,1.9-5.7,2.9-8.9,3C562.1,34.9,560.5,31.7,560.6,27.6z"/>
	<path class="st0" d="M582.8,27.6L583,6h-4.7V3.2l4.9-1.2l2.9-8h2.3v8.6h9v3.6h-8.8v18.7c0,5.4,2,5.8,4.5,5.8c1.7,0,3.3-0.2,5-0.5
		l0.4,1.7c-2.6,1.9-5.7,2.9-8.9,3C584.3,34.9,582.8,31.7,582.8,27.6z"/>
	<path class="st0" d="M615.9,31.9l5.7-1.5V-6.5l-5.7-1.7v-2.1h17.9v2.2l-5.7,1.7v36.9l5.7,1.6v2.1h-17.9V31.9z"/>
	<path class="st0" d="M638.6,31.8l4.2-1.4V7.9l-4.5-1.1V5l8.2-3.2h0.3l1.5,6.1h0.1c1.1-1.3,5.4-6.1,11-6.1c6.2,0,9.1,2.7,9.1,11.3
		v17.5l4.4,1.4v2.2H659v-2.3l3.8-1.3V13.6c-0.3-4.7-1.7-7.3-6.2-7.3c-4.5,0-8.2,3.7-8.2,3.8v20.4l4.4,1.3v2.3h-14.3V31.8z"/>
	<path class="st0" d="M678.7,32.8l-1.1-9.4h2.2l3.4,7.4c1.5,1.4,3.5,2.1,5.5,2c3.4,0,5.8-2,5.8-5.1c0-2.5-1.4-4.5-6.5-6.8l-2.7-1.2
		c-4.6-2.1-6.9-4.5-6.9-8.8c0-5.2,5.4-9.3,11.5-9.3c2.8,0.1,5.5,0.8,7.9,2.2l0.3,8h-2l-2.7-5.8c-1.2-1.1-2.8-1.7-4.5-1.7
		c-3.2,0-5.1,2.1-5.1,4.6s1.4,4.3,5.4,6.2l2.9,1.3c6,2.6,7.9,5.6,7.9,9.2c0,5.6-6.2,9.9-12.7,9.9C684.4,35.3,681.3,34.4,678.7,32.8z
		"/>
	<path class="st0" d="M708.2,27.6L708.4,6h-4.7V3.2l4.9-1.2l3-8h2.3v8.6h9v3.6H714v18.7c0,5.4,1.9,5.8,4.5,5.8c1.7,0,3.3-0.2,5-0.5
		l0.4,1.7c-2.6,1.9-5.7,2.9-8.9,3C709.7,34.9,708.2,31.7,708.2,27.6z"/>
	<path class="st0" d="M726.9,31.8l4.5-1.4V7.5L727.4,6V3.7l9.5-1.9v28.6l5,1.4v2.3h-15V31.8z M729.5-11.8c0-2.3,1.8-4.1,4.1-4.1
		c2.3,0,4.1,1.8,4.1,4.1c0,2.3-1.8,4.1-4.1,4.1C731.4-7.7,729.6-9.5,729.5-11.8L729.5-11.8z"/>
	<path class="st0" d="M749.2,27.6L749.4,6h-4.7V3.2l4.9-1.2l2.9-8h2.3v8.6h9v3.6H755v18.7c0,5.4,1.9,5.8,4.5,5.8
		c1.7,0,3.3-0.2,5-0.5l0.4,1.7c-2.6,1.9-5.7,2.9-8.9,3C750.6,34.9,749.1,31.7,749.2,27.6z"/>
	<path class="st0" d="M791.4,29.7c-0.5,0.6-4.9,5.6-11.2,5.6c-6,0-8.9-4.3-8.9-11.9V6.9l-4.6-1.3V3L777,2v20.7c0.2,5.6,2.5,8,7,8
		c2.7-0.1,5.2-1.3,7.1-3.1V6.9l-5.4-1.2V3.2l11.1-1v28.1l5.4,1.3v2.2l-8.9,1.3L791.4,29.7z"/>
</g>
<g>
	<path class="st0" d="M808.5,27.6L808.7,6H804V3.2l4.9-1.2l3-8h2.3v8.6h9v3.6h-8.8v18.7c0,5.4,1.9,5.8,4.5,5.8c1.7,0,3.3-0.2,5-0.5
		l0.4,1.7c-2.6,1.9-5.7,2.9-8.9,3C809.9,34.9,808.4,31.7,808.5,27.6z"/>
</g>
<g>
	<path class="st0" d="M827.1,19.6c0-10,6.4-17.8,15.8-17.8c7.4,0,11.8,5,11.8,14.2h-22.2v0.7c0,8.3,4.8,13.5,11.7,13.5
		c5.7,0,9.3-5,9.3-5l1.3,0.8c0,0-3.1,9.3-13.1,9.3C830.6,35.2,827.1,25.4,827.1,19.6z M832.8,13.4H848c-0.1-4.5-2.1-8.6-6.6-8.6
		C837.2,4.7,833.8,8.4,832.8,13.4z"/>
</g>
<g>
	<path class="st0" d="M901.7,31l5.4-10.2h2.5l-2.4,13.3h-32.4v-2.2l5.7-1.5V-6.4l-5.7-1.8v-2.2h19v2.2L887-6.5V31H901.7z"/>
</g>
<g>
	<path class="st0" d="M912.7,31.8l4.5-1.4V7.5l-4-1.4V3.7l9.5-1.9v28.6l5,1.4v2.3h-15V31.8z M915.3-11.8c0-2.3,1.8-4.1,4.1-4.1
		c2.3,0,4.1,1.8,4.1,4.1c0,2.3-1.8,4.1-4.1,4.1C917.2-7.7,915.4-9.5,915.3-11.8z"/>
	<path class="st0" d="M937.7,33.9l-2.5-1.1v-42.9l-4.2-1.3v-2.1l9.8-2.3V6.9c2.3-3.2,5.9-5.1,9.8-5.2c6.2,0,12.7,4.3,12.7,15.2
		c0,9.9-7.9,17.9-17.8,18.2C942.9,35.3,940.2,34.9,937.7,33.9z M940.9,9.3v20.3c1.9,1.6,4.4,2.6,6.9,2.7c4.9,0,9.9-4.6,9.9-13.5
		c0-7.8-4.1-12.7-9.8-12.7C945.2,6.2,942.7,7.4,940.9,9.3z"/>
</g>
<g>
	<path class="st0" d="M968.1,31.8l4.2-1.4V7.9L967.8,7V5l9.1-3.2h0.3l0.4,8.4h0.1l2.1-2.9c3.2-4.4,4.9-5.6,7.1-5.6
		c1.6-0.2,3.1,1,3.3,2.7c0,0.2,0,0.4,0,0.7c-0.2,1.7-0.9,3.4-2.1,4.6L983,7.9c-1.9,1.5-3.6,3.2-5.1,5.1v17.7l5.9,1.1v2.3h-15.8V31.8
		z"/>
</g>
<g>
	<path class="st0" d="M993.3,27.3c0-5.4,3.9-7.8,10.8-9.6l6.9-1.8v-3.5c-0.1-5.2-2.8-7.8-6.4-7.8c-1.5,0-2.9,0.4-4.2,1.2l-0.3,6.6
		c0,0-1.7,0.2-2.7,0.2c-2.1,0-3.2-1.1-3.2-2.9c0-3.1,5.9-8,12.8-8s9.7,3.1,9.7,9.7v18.2c0,1.3,0.3,1.8,2.2,1.8h3.3v1.9
		c0,0-3.9,1.7-6.4,1.7c-3.4,0-4.8-2.3-4.8-5.2h-0.2c-3.8,3.6-5.4,5.4-9.6,5.4C997.8,35.1,993.3,32.7,993.3,27.3z M1011,26.9v-8.8
		l-6.4,2.1c-3.2,1.1-5.2,2.3-5.2,5.2c0,3.4,2.6,5.2,5.5,5.2C1007.4,30.4,1009.7,29.1,1011,26.9z"/>
</g>
<g>
	<path class="st0" d="M1025.9,31.8l4.2-1.4V7.9l-4.5-0.9V5l9.1-3.2h0.3l0.4,8.4h0.1l2.1-2.9c3.2-4.4,4.9-5.6,7.1-5.6
		c1.6-0.2,3.1,1,3.3,2.7c0,0.2,0,0.4,0,0.7c-0.2,1.7-0.9,3.4-2.1,4.6l-5.2-1.7c-1.9,1.5-3.6,3.2-5.1,5.1v17.7l5.9,1.1v2.3h-15.8
		V31.8z"/>
</g>
<g>
	<path class="st0" d="M1050.6,31.8l4.5-1.4V7.5l-4-1.4V3.7l9.5-1.9v28.6l5,1.4v2.3h-15V31.8z M1053.3-11.8c0-2.3,1.8-4.1,4.1-4.1
		c2.3,0,4.1,1.8,4.1,4.1c0,2.3-1.8,4.1-4.1,4.1C1055.2-7.7,1053.3-9.5,1053.3-11.8z"/>
</g>
<g>
	<path class="st0" d="M1069.6,19.6c0-10,6.4-17.8,15.8-17.8c7.4,0,11.8,5,11.8,14.2H1075v0.7c0,8.3,4.8,13.5,11.7,13.5
		c5.7,0,9.3-5,9.3-5l1.3,0.8c0,0-3.1,9.3-13.1,9.3C1073.2,35.2,1069.6,25.4,1069.6,19.6z M1075.4,13.4h15.1
		c-0.1-4.5-2.1-8.6-6.6-8.6C1079.7,4.7,1076.4,8.4,1075.4,13.4z"/>
</g>
<g>
	<path class="st0" d="M1104.6,32.8l-1.1-9.4h2.2l3.4,7.4c1.5,1.4,3.5,2.1,5.5,2c3.4,0,5.8-2,5.8-5.1c0-2.5-1.4-4.5-6.5-6.8l-2.7-1.2
		c-4.6-2.1-6.9-4.5-6.9-8.8c0-5.2,5.4-9.3,11.5-9.3c2.8,0.1,5.5,0.8,7.9,2.2l0.3,8h-2l-2.8-5.8c-1.2-1.1-2.8-1.7-4.5-1.7
		c-3.2,0-5.1,2.1-5.1,4.6s1.4,4.3,5.4,6.2l2.8,1.3c6,2.6,7.9,5.6,7.9,9.2c0,5.6-6.2,9.9-12.7,9.9
		C1110.2,35.3,1107.2,34.4,1104.6,32.8z"/>
</g>
<path class="st0" d="M376.6,30.8c1-2.6,2.5-5,4.4-7.1c1.6-1.7,3.4-3.3,5.1-5c0.8-0.8,1.7-1.6,2.5-2.4c1.1-1.2,1.8-2.7,1.9-4.3
	c0.2-2.3-0.4-3.4-2.5-4.4c-0.2-0.1-0.5-0.3-0.8-0.5c0.5-1.1,1.5-1.9,2.7-2.1c-0.1-0.2-0.2-0.3-0.3-0.5c-1.8-1.3-1.9-3-1.3-4.9
	c0.5-2.1,2.1-3.8,4.2-4.5c3.3-1.1,6.4-0.7,9.1,1.8l2.1,2c0.3-0.9,0.5-1.5,0.6-2.3c0.3-2.7,2.5-4.9,5.2-5.2c1.1-0.2,1.5-0.6,1.4-1.7
	c-0.1-1.2-0.1-2.5-0.1-3.7c0-4.6,1.9-9.1,5.4-12.2c1.3-1.4,3.4-1.7,5.1-0.9c1,0.5,1.5,0.2,2-0.8c0.9-1.8,1.9-3.6,3-5.3
	c1.2-1.5,2.5-2.9,4-4.1c1.2-1,2.9-1.5,4.5-1.1c0.4,0,1,0.5,1,0.8c0.1,1,0.1,2,0,3l-0.4,0.2c-0.5-0.3-1-0.7-1.4-1.1
	c-0.1-0.2,0.3-0.8,0.5-1.4c-0.6,0-1.3,0.1-1.9,0.3c-3.2,1.6-5.6,4.4-6.5,7.9c-0.3,1,0,1.1,1.7,1.1l-0.6-0.5l-0.6-0.5h1.3l0.1-0.2
	l-1.1-0.6l0.8-0.1l1.8-3.3l0.2,0.1l2.5-1.9l0.3,0.3c-0.4,0.6-0.7,1.2-1.1,1.8c-2.2,2.9-3,6.2-3.4,9.7c-0.9,7.4-0.3,14.8,0.8,22.2
	c0.7,5.5,3.1,10.5,5,15.6c0.3,0.8,0.8,0.9,1.3,0.2c0.2-0.2,0.5-0.4,1-0.9c0,2,0,3.8,0,5.5c0,0.3-0.3,0.6-0.6,0.8
	c-1.4,1.1-2.9,2-4.2,3.2c-1.2,1.3-2.3,2.6-3.4,4c2.2,0,4.3,0,6.5,0c0.5,0,1.4-0.4,1.5,0.5c-0.5,0.3-1,0.4-1.6,0.5
	c-1,0.1-2.1,0.1-3.1,0.2v0.3h1.9c0.7,0,1.5-0.1,2.2-0.1c0.2,0,0.5,0.3,0.7,0.5c-0.2,0.2-0.4,0.5-0.7,0.6c-0.7,0-1.5,0.1-2.2,0.2h2.8
	c0,1.1,0.1,2.2,0.1,3.2c0,0.2-0.5,0.4-0.8,0.7l1.1,0.4l-1.4,0.6l0.9,0.3v1.2c-0.7,0.2-1.6,0.3-1.4,1.5l1.4-1.1v5.2l-0.8-1.2l0.4-0.3
	l-0.5-0.3c-0.6,0.7-1.2,1.3-1.8,1.9c-0.2,0.2-0.4,0.5-0.5,0.8c-0.4,1.5-0.7,1.8-2.1,1.9c-0.3,0-0.6,0-0.7,0.2
	c-1.3,1.9-3,1.1-4.5,0.7c-2.7-0.8-4-2.9-4.8-5.4c-0.4-1.6,0.4-3.2,1.9-3.9c1.4-1,3.3-0.7,4.5,0.6c0.4,0.5,0.8,1.1,1.2,1.7
	c-0.7,0.9-1.2,2.1-2.6,1.8c-1-0.2-1.7-1.2-1.5-2.2c-0.6-0.2-1.2,0.1-1.5,0.7c0,0.1,0,0.1,0,0.2c-0.3,0.8,0.3,1,0.9,1.2
	c0.9,0.3,1.8,0.9,2.7,1.1c0.5,0,1-0.2,1.3-0.6c1-0.8,1.9-1.8,2.6-2.9c0.8-1.3,0.5-2.2-0.2-3.4c-2.3-3.8-8.6-4.2-11.6-0.6
	c-2.5,3.1-2.3,7.6,0.6,10.4l0.7,0.6c-1.3,0.7-2.9,0.3-3.6-1c-0.1-0.1-0.1-0.3-0.2-0.4c-0.1-0.4-0.3-0.7-0.6-1
	c-0.9-0.5-1.4-1.6-1.2-2.6c0-0.4-0.1-0.9-0.4-1.2c-0.7-0.9-0.9-1.7-0.1-2.7c0.2-0.2,0.3-0.4,0.3-0.6c-0.3-1.4,0.4-2.3,1.3-3.1
	c0.4-0.4,0.8-0.8,1.1-1.2l-0.2-0.3l-0.9,0.8c-4.9,4.4-10.2,8.4-15.7,12c-3.8,2.4-8.4,3.2-12.8,2c-5.3-1.4-9.2-5.8-10-11.3
	c-0.1-0.4-0.2-0.7-0.3-1.1V30.8z M396.7,30L396.7,30c0.3,0.7,0.4,1.4,0.4,2.1c-0.1,1-1.3,1.8-1,3c-1.4,1.1-2.1,2.9-3.9,3.4
	c-0.7,0.2-1.3,0.3-2,0.3c-3.7-0.1-6-2.2-5.7-5.4c0.1-1.8,1.2-3.4,2.9-4.2c0.8-0.4,2.2,0.1,3.3,0.2l-0.1,0.6l1.3,0.6l0.6-0.4
	c-0.2-1.4-1.2-2.6-2.5-3.1c-1.5-0.6-3.1-0.5-4.5,0.2c-1.2,0.7-2.3,1.6-3.1,2.7c-1.5,2.3-2.2,4.8,0.2,7.1c0,0.1,0.1,0.1,0.1,0.2
	c2.6,4.8,8.6,6.7,13.4,4.1c2.7-1.4,5.4-3,8-4.5c5.5-3.2,11-6.4,16.5-9.6c8.2-4.8,0-0.1,0-0.3c-0.8,0.3-1.5,0.6-2.2,1
	c-1.7,0.9-3.5,1.8-5.1,2.8c-2.2,1.4-4.9,1.9-7.5,1.5c-1.3-0.1-2.5-0.7-3.2-1.7c-0.7-1.1-1.3-2.2-1.7-3.5c-0.5-2.3,0.9-4.6,3.2-5.2
	l1-0.3c-4-3.3-4-3.3-4-7.4l-11.1,8.9c0.7,0,1.5,0.1,2.2,0.3c2.4,0.6,3.5,2.6,4.7,4.4C397,28.5,396.7,29.4,396.7,30z M416.4-20.4
	c-0.1,0.3-0.1,0.5-0.1,0.8c-1.1,3.6-1.2,7.5-0.4,11.1c1.1,5.5,2.8,10.6,6.3,15.1c1.5,1.9,2.7,3.9,4,5.9c0.3,0.6,1,1,1.7,0.9
	c0.5,0,0.9,0.3,1.2,0.7c0.6,0.8,1.1,1.7,1.7,2.6c0.2,0.3,0.4,0.6,0.7,0.8l0.4-0.2c-8.6-12-10.9-25.5-9.5-39.3l-2.5-1.2l1.1-1.8
	c-0.3-0.8-1.2-1.1-1.9-0.8c-0.1,0.1-0.2,0.1-0.4,0.2c-2.7,1.7-4.5,4.4-5,7.5c0,0.3,0,0.6,0,0.9h1.3l-1-0.7l1.3-0.2l-1.1-0.9h1.2
	l0-1.6L416.4-20.4z M408.3-3.5l0.5-0.6c0.1,0.3,0.4,0.5,0.4,0.8c-0.2,0.9-0.3,1.7-0.3,2.6c0.3,1.5,0.7,3.1,1.1,4.6
	c0.5,1.9,1.7,3.7,3.2,4.9c3.3,2.6,6.7,5.2,10,7.7c0.3,0.2,0.8,0.4,1,0.3c0.9-0.4,1.3,0.1,1.8,0.6c1,1,2,2,3.1,3l0.2-0.2
	c-0.2-0.3-0.5-0.6-0.7-0.8c-3.3-3.6-6.5-7.1-9.8-10.7c-3-3.3-5.2-7.1-6.6-11.3c-0.3-0.9-0.6-1.7-0.8-2.4c-0.7,0.1-1.4,0.4-1.7,0.1
	c-0.3-0.2-0.4-1-0.7-1.6c-2.5,0.1-3.4,4.4-2.7,7.4l1.7-0.4l-1.7-0.6l1.8-0.6L408-0.9l-1.6-0.2l1.5-0.6l-1.4-0.6l1.8-0.3L407-3.3
	c0.1-0.1,0.2-0.1,0.2-0.1L408.3-3.5z M425.8,25.4v-0.3c-5.8-3.2-12.1-1.9-18.3-2.3c0.1,0.5,0.2,0.9,0.3,1.3c0.2,0.8-0.2,1.7-0.9,2
	c-0.5,0.2-1.4,0.2-1.5-0.1c-0.3-0.6-0.4-1.3-0.4-2c-1.3-0.7-1.3,1-2.2,1.4l0.8,0.6l-0.8,0.6l1.7,0.1l-1.1,0.6
	c0.8,0.2,1.9,0.1,2.5,0.6c1.1,0.9,2.5,1.2,3.9,0.7c3.7-1.1,7.5-2.3,11.2-3.4c0.3-0.2,0.6-0.4,0.9-0.7L425.8,25.4z M405,6.2l-1.5,4.8
	c0.4-0.2,0.8-0.3,1.2-0.4c1.3-0.5,2.8,0.3,3.2,1.6c0.3,0.9,0.1,1.9-0.6,2.6c-0.7,0.5-1.7,0.4-2.3-0.3c-0.6-0.7,0.1-1,0.5-1.4
	c0.1-0.1,0.1-0.2,0.1-0.4c-0.8-0.2-1.7,0-2.2,0.7c-0.1,0.1,0.1,0.5,0.2,0.7l-1.1,0.7l1,0.4l-0.7,0.9c1.5-0.4,2.7-0.4,3.6,0.5
	c1.4,1.2,3.2,2,5.1,2.3c3.1,0.6,6.2,1.2,9.4,1.8c0.3,0,0.6,0.1,0.8,0c0.7-0.7,1.3-0.2,1.8,0.1l4,2.3l0.2-0.3c-1-0.8-2.1-1.6-3.3-2.2
	c-3.2-1.6-6.4-3.1-9.7-4.5c-4.4-1.9-7.8-4.8-9.3-9.5C405.3,6.4,405.2,6.4,405,6.2z M393.4,15.9l0.1,0.1c0.2-0.2,0.4-0.3,0.6-0.5
	c0.9-0.8,1.7-1.6,2.6-2.4c3.6-3,4.2-7.4,1.4-10.9c-0.9-1.2-2.6-1.7-3.6-1.1c0.5,2.2,0,3.1-2.9,4.5c0.8,0.5,2,0.9,2.3,1.7
	s-0.1,1.9-0.2,3c1.3,0.6,1.5,1.1,0.9,2.6C394.4,13.9,393.9,14.9,393.4,15.9z M401.3,3.4l-0.4,0.7c0.8,0.1,1.1-0.3,1-1
	c0-0.5-0.1-1.1-0.3-1.6c-1.6-3.4-5.6-5-9.1-3.6c-1.3,0.5-2.2,1.6-2.5,3c-0.1,0.2,0.1,0.4,0.2,0.7c0.3-1,3.5-2.5,4.8-2.4
	c2.5,0.2,4.9,1.9,4.9,3.3l1-0.1l0.1,0.2L400,3.2L401.3,3.4z M425.9-25.1l1.5-0.2l-1.6-1.3l-1.1,4.7l1.1-0.3l-0.4-0.6l1.7-0.3
	l-1.7-0.8l1.8-0.3L425.9-25.1z M385.9,33.4c0.4,0.3,0.9,0.6,1.4,0.9c0.6,0.2,1.2,0.3,1.8,0.1c0.9-0.3,1.4-1.2,1.3-2.1
	c-0.7,0.6-1.3,1.4-1.9,1.4c-0.6,0.1-1.3-0.6-2-1.1L385.9,33.4z M421.6,28.6l4.6-0.6C424.6,27.2,423.1,27.8,421.6,28.6z M414.5-13.1
	l-1.4-0.8l1.3-0.4c-0.4-0.2-1.1-0.4-1.3-0.2c-0.2,0.5-0.2,1.1-0.2,1.7L414.5-13.1z M388.3,22.9c-0.6,0-1.2,0.1-1.8,0.1
	s-1,0.2-1.6,0.4L385,24C385.9,22.9,387.5,24.4,388.3,22.9L388.3,22.9z"/>
<path class="st0" d="M430.1,26.8c0.9,0,1.9-0.1,2.8-0.2c0.9,0,1.8,0,2.7,0c0.2,0,0.3,0.2,0.5,0.4c-0.1,0.2-0.2,0.4-0.4,0.4
	c-1.8,0-3.5,0.1-5.2,0.1c-0.1,0-0.3-0.2-0.4-0.3L430.1,26.8z"/>
<path class="st0" d="M431.6,25.4c0.8-0.1,1.5-0.2,2.3-0.2c0.7,0,1.4,0,2.2,0V26C435.4,26.6,432,26.1,431.6,25.4z"/>
<path class="st0" d="M432.9,23.9c1.1,0,2,0,3,0c0.1,0,0.3,0.5,0.2,0.6C435.8,24.8,433.4,24.5,432.9,23.9z"/>
</svg>
