<svg id="Layer_1" data-name="Layer 1" xmlns="http://www.w3.org/2000/svg" viewBox="0 0 755.42 94.61"><defs><style>.cls-1{isolation:isolate;}.cls-2{fill:#fff;}</style></defs><title>Artboard 1</title><g class="cls-1"><path class="cls-2" d="M115.62,45.18c0-5.63-4.69-10.72-16-10.72V73l8.5,1.54v2.21H87.42V74.52L93.11,73V36.14L87.42,34.4V32.25l14.67-.13c13.53-.14,20.43,4.75,20.43,12,0,10-10.92,14.4-19.83,13.8V55.7C110.53,55.09,115.62,51.61,115.62,45.18Z"/></g><g class="cls-1"><path class="cls-2" d="M127,74.45,131.22,73V50.47l-4.48-.87v-2l9.11-3.21h.33l.4,8.37h.14l2.14-2.88c3.22-4.36,4.89-5.63,7.1-5.63a3,3,0,0,1,3.28,3.35,7.56,7.56,0,0,1-2.14,4.62l-5.16-1.74a30.44,30.44,0,0,0-5.09,5.09V73.25l5.9,1.13v2.35H127Z"/></g><g class="cls-1"><path class="cls-2" d="M152.26,69.9c0-5.36,3.88-7.77,10.78-9.58l6.9-1.81V55c-.13-5.16-2.81-7.84-6.36-7.84a8.45,8.45,0,0,0-4.22,1.21L159.09,55s-1.68.2-2.68.2c-2.14,0-3.22-1.07-3.22-2.88,0-3.08,5.9-8,12.8-8s9.71,3.08,9.71,9.71V72.18c0,1.34.34,1.8,2.21,1.8h3.35v1.88s-3.88,1.67-6.36,1.67c-3.42,0-4.83-2.34-4.83-5.22h-.2c-3.75,3.55-5.36,5.42-9.58,5.42C156.74,77.73,152.26,75.26,152.26,69.9Zm17.68-.34V60.72l-6.43,2.14c-3.15,1.08-5.16,2.35-5.16,5.16,0,3.42,2.61,5.16,5.49,5.16A7.64,7.64,0,0,0,169.94,69.56Z"/></g><g class="cls-1"><path class="cls-2" d="M187.62,70.17l.2-21.57h-4.69V45.78l4.89-1.2,2.95-8h2.27v8.65h9V48.8h-8.84V67.49c0,5.36,1.94,5.76,4.49,5.76a38.26,38.26,0,0,0,5-.47l.4,1.67a15.8,15.8,0,0,1-8.91,3C189.09,77.47,187.55,74.32,187.62,70.17Z"/><path class="cls-2" d="M209.85,70.17l.2-21.57h-4.68V45.78l4.89-1.2,2.94-8h2.28v8.65h9V48.8h-8.85V67.49c0,5.36,1.95,5.76,4.49,5.76a38.28,38.28,0,0,0,5-.47l.4,1.67a15.8,15.8,0,0,1-8.91,3C211.33,77.47,209.79,74.32,209.85,70.17Z"/><path class="cls-2" d="M242.94,74.52,248.63,73V36.14l-5.69-1.74V32.25h17.89V34.4l-5.7,1.74V73l5.7,1.61v2.14H242.94Z"/><path class="cls-2" d="M265.58,74.45,269.8,73V50.47l-4.49-1.07V47.59l8.24-3.21h.33l1.48,6.09h.07c1.13-1.34,5.35-6.09,11-6.09,6.23,0,9.11,2.68,9.11,11.25V73.11l4.36,1.41v2.21H286V74.45l3.82-1.34V56.17c-.27-4.69-1.68-7.31-6.17-7.31s-8.17,3.69-8.17,3.82V73.11l4.42,1.34v2.28H265.58Z"/><path class="cls-2" d="M305.7,75.39,304.63,66h2.21l3.41,7.37a7.46,7.46,0,0,0,5.5,2c3.41,0,5.76-2,5.76-5.09,0-2.48-1.41-4.49-6.5-6.77l-2.68-1.2c-4.62-2.08-6.9-4.49-6.9-8.78,0-5.15,5.43-9.31,11.52-9.31a17.13,17.13,0,0,1,7.91,2.15l.33,8h-2l-2.74-5.83A6.59,6.59,0,0,0,316,46.85c-3.22,0-5.09,2.08-5.09,4.63s1.4,4.35,5.42,6.16l2.88,1.27c6,2.61,7.91,5.56,7.91,9.18,0,5.56-6.16,9.91-12.66,9.91A17.14,17.14,0,0,1,305.7,75.39Z"/><path class="cls-2" d="M335.24,70.17l.2-21.57h-4.69V45.78l4.89-1.2,2.95-8h2.27v8.65h9V48.8H341V67.49c0,5.36,1.94,5.76,4.49,5.76a38.26,38.26,0,0,0,5-.47l.4,1.67a15.8,15.8,0,0,1-8.91,3C336.71,77.47,335.17,74.32,335.24,70.17Z"/><path class="cls-2" d="M353.86,74.45,358.34,73V50.07l-3.95-1.41V46.32l9.51-1.94V73l5,1.41v2.28H353.86Zm2.68-43.61a4.12,4.12,0,1,1,4.15,4.09A4.2,4.2,0,0,1,356.54,30.84Z"/><path class="cls-2" d="M376.16,70.17l.2-21.57h-4.69V45.78l4.89-1.2,2.95-8h2.28v8.65h9V48.8h-8.84V67.49c0,5.36,1.94,5.76,4.49,5.76a38.26,38.26,0,0,0,5-.47l.41,1.67a15.8,15.8,0,0,1-8.91,3C377.63,77.47,376.09,74.32,376.16,70.17Z"/><path class="cls-2" d="M418.36,72.31c-.54.6-4.89,5.56-11.19,5.56-6,0-8.91-4.35-8.91-11.92V49.47l-4.62-1.34V45.65l10.32-1v20.7c.2,5.56,2.54,8,7,8a11,11,0,0,0,7.1-3.14V49.47l-5.42-1.21V45.78l11.12-1V72.85l5.42,1.33v2.21l-8.91,1.34Z"/></g><g class="cls-1"><path class="cls-2" d="M435.45,70.17l.2-21.57H431V45.78l4.89-1.2,2.95-8h2.27v8.65h9V48.8h-8.84V67.49c0,5.36,1.94,5.76,4.49,5.76a38.26,38.26,0,0,0,5-.47l.4,1.67a15.8,15.8,0,0,1-8.91,3C436.92,77.47,435.38,74.32,435.45,70.17Z"/></g><g class="cls-1"><path class="cls-2" d="M454.07,62.19c0-10,6.44-17.81,15.81-17.81,7.44,0,11.79,5,11.79,14.2H459.5v.67c0,8.3,4.76,13.46,11.72,13.46,5.7,0,9.31-5,9.31-5l1.34.8s-3.14,9.31-13.13,9.31C457.63,77.8,454.07,68,454.07,62.19ZM459.84,56H475c-.06-4.55-2.14-8.64-6.56-8.64C464.19,47.32,460.84,51,459.84,56Z"/></g><g class="cls-1"><path class="cls-2" d="M528.69,73.58l5.43-10.18h2.48l-2.41,13.33H501.77V74.52L507.46,73V36.2l-5.69-1.8V32.25h19V34.4L514,36.14V73.58Z"/></g><g class="cls-1"><path class="cls-2" d="M539.67,74.45,544.16,73V50.07l-3.95-1.41V46.32l9.51-1.94V73l5,1.41v2.28H539.67Zm2.68-43.61a4.12,4.12,0,1,1,4.15,4.09A4.2,4.2,0,0,1,542.35,30.84Z"/><path class="cls-2" d="M564.65,76.53l-2.47-1.07V32.52L558,31.25V29.1l9.85-2.34V49.53a12.19,12.19,0,0,1,9.85-5.15c6.23,0,12.72,4.28,12.72,15.2A18.29,18.29,0,0,1,572.63,77.8,21.21,21.21,0,0,1,564.65,76.53Zm3.22-24.65v20.3a11.37,11.37,0,0,0,6.9,2.67c4.89,0,9.91-4.62,9.91-13.46,0-7.77-4.08-12.73-9.84-12.73A10.48,10.48,0,0,0,567.87,51.88Z"/></g><g class="cls-1"><path class="cls-2" d="M595.06,74.45,599.28,73V50.47l-4.48-.87v-2l9.11-3.21h.33l.4,8.37h.14l2.14-2.88c3.22-4.36,4.89-5.63,7.1-5.63a3,3,0,0,1,3.28,3.35,7.56,7.56,0,0,1-2.14,4.62L610,50.47a30.44,30.44,0,0,0-5.09,5.09V73.25l5.9,1.13v2.35H595.06Z"/></g><g class="cls-1"><path class="cls-2" d="M620.32,69.9c0-5.36,3.88-7.77,10.78-9.58l6.9-1.81V55c-.13-5.16-2.81-7.84-6.36-7.84a8.45,8.45,0,0,0-4.22,1.21L627.15,55s-1.68.2-2.68.2c-2.14,0-3.22-1.07-3.22-2.88,0-3.08,5.9-8,12.8-8s9.71,3.08,9.71,9.71V72.18c0,1.34.34,1.8,2.21,1.8h3.35v1.88s-3.88,1.67-6.36,1.67c-3.42,0-4.83-2.34-4.83-5.22h-.2c-3.75,3.55-5.36,5.42-9.58,5.42C624.8,77.73,620.32,75.26,620.32,69.9ZM638,69.56V60.72l-6.43,2.14c-3.15,1.08-5.16,2.35-5.16,5.16,0,3.42,2.61,5.16,5.49,5.16A7.64,7.64,0,0,0,638,69.56Z"/></g><g class="cls-1"><path class="cls-2" d="M652.87,74.45,657.09,73V50.47l-4.48-.87v-2l9.11-3.21h.33l.4,8.37h.14l2.14-2.88c3.22-4.36,4.89-5.63,7.1-5.63a3,3,0,0,1,3.28,3.35A7.56,7.56,0,0,1,673,52.21l-5.16-1.74a30.44,30.44,0,0,0-5.09,5.09V73.25l5.9,1.13v2.35H652.87Z"/></g><g class="cls-1"><path class="cls-2" d="M677.59,74.45,682.08,73V50.07l-4-1.41V46.32l9.51-1.94V73l5,1.41v2.28H677.59Zm2.68-43.61a4.12,4.12,0,1,1,4.15,4.09A4.2,4.2,0,0,1,680.27,30.84Z"/></g><g class="cls-1"><path class="cls-2" d="M696.61,62.19c0-10,6.44-17.81,15.81-17.81,7.44,0,11.79,5,11.79,14.2H702v.67c0,8.3,4.76,13.46,11.72,13.46,5.7,0,9.31-5,9.31-5l1.34.8s-3.14,9.31-13.13,9.31C700.17,77.8,696.61,68,696.61,62.19ZM702.38,56h15.13c-.06-4.55-2.14-8.64-6.56-8.64C706.73,47.32,703.38,51,702.38,56Z"/></g><g class="cls-1"><path class="cls-2" d="M731.58,75.39,730.51,66h2.21l3.41,7.37a7.43,7.43,0,0,0,5.49,2c3.42,0,5.77-2,5.77-5.09,0-2.48-1.41-4.49-6.5-6.77l-2.68-1.2c-4.62-2.08-6.9-4.49-6.9-8.78,0-5.15,5.42-9.31,11.52-9.31a17.06,17.06,0,0,1,7.9,2.15l.34,8h-2l-2.75-5.83a6.53,6.53,0,0,0-4.48-1.68c-3.22,0-5.1,2.08-5.1,4.63s1.41,4.35,5.43,6.16L745,58.91c6,2.61,7.9,5.56,7.9,9.18,0,5.56-6.16,9.91-12.66,9.91A17.13,17.13,0,0,1,731.58,75.39Z"/></g><path class="cls-2" d="M3.56,73.45A23,23,0,0,1,8,66.39c1.65-1.7,3.41-3.3,5.11-5,.83-.8,1.66-1.59,2.46-2.42a7,7,0,0,0,1.94-4.32c.2-2.3-.39-3.38-2.47-4.4-.23-.11-.45-.26-.79-.45a3.62,3.62,0,0,1,2.7-2.09,2.39,2.39,0,0,0-.34-.47c-1.77-1.29-1.92-3-1.35-4.93a6.37,6.37,0,0,1,4.23-4.52c3.31-1.08,6.43-.72,9.1,1.76l2.13,2c.25-.88.51-1.55.64-2.25a5.89,5.89,0,0,1,5.2-5.22c1.08-.18,1.49-.61,1.38-1.72a30.13,30.13,0,0,1-.06-3.68A16.28,16.28,0,0,1,43.23,16.5a4.39,4.39,0,0,1,5.1-.85c1,.46,1.47.19,2-.75a36,36,0,0,1,3-5.26,32.09,32.09,0,0,1,4-4.11A5.33,5.33,0,0,1,61.82,4.4c.39,0,1,.5,1,.83a21.15,21.15,0,0,1,0,3l-.37.24a6.1,6.1,0,0,1-1.36-1.14c-.13-.2.25-.75.49-1.37a6.66,6.66,0,0,0-1.87.34,12.28,12.28,0,0,0-6.54,7.89c-.28.95,0,1.1,1.69,1.12l-.56-.49-.59-.48h1.3l.11-.18-1.07-.63.81-.1,1.8-3.34.21.06,2.45-1.9.25.27c-.38.6-.71,1.24-1.14,1.8-2.22,2.87-3,6.23-3.44,9.73-.88,7.44-.25,14.82.75,22.22.74,5.53,3.08,10.48,5,15.58.32.83.75.89,1.33.23.21-.24.47-.44,1-.9,0,2,0,3.78,0,5.52,0,.27-.32.58-.57.78-1.38,1.08-2.9,2-4.17,3.22a46.43,46.43,0,0,0-3.36,4c2.2,0,4.34,0,6.48,0,.55,0,1.37-.39,1.55.54a4.57,4.57,0,0,1-1.59.52c-1,.12-2.06.11-3.09.16v.28h1.89c.73,0,1.46-.1,2.18-.06.24,0,.46.34.69.52-.22.2-.42.53-.66.56a16.21,16.21,0,0,0-2.18.2H63c.05,1.14.15,2.18.11,3.21,0,.24-.5.45-.78.69l1.1.42-1.4.6.93.34v1.18c-.66.17-1.58.35-1.37,1.5l1.36-1.07v5.21l-.75-1.15.42-.27-.47-.35c-.64.7-1.22,1.3-1.77,1.94a2.15,2.15,0,0,0-.52.83c-.39,1.5-.68,1.76-2.15,1.88-.25,0-.61,0-.72.22-1.28,1.87-3,1.08-4.52.66-2.73-.75-4-2.9-4.75-5.43a3.32,3.32,0,0,1,1.89-3.89,3.46,3.46,0,0,1,4.49.56c.43.53.8,1.11,1.22,1.7-.74.86-1.2,2.1-2.59,1.8a2,2,0,0,1-1.54-2.17,1.14,1.14,0,0,0-1.51.86c-.26.8.28,1,.86,1.17.92.34,1.77.88,2.7,1.13a1.81,1.81,0,0,0,1.33-.57,12.48,12.48,0,0,0,2.65-2.9c.81-1.34.54-2.18-.18-3.41-2.27-3.82-8.55-4.15-11.58-.64a7.66,7.66,0,0,0,.64,10.41l.66.63a2.66,2.66,0,0,1-3.81-1.38,1.76,1.76,0,0,0-.57-1,2.34,2.34,0,0,1-1.18-2.62,1.67,1.67,0,0,0-.41-1.21c-.74-.9-.93-1.73-.07-2.65A1,1,0,0,0,41,79c-.32-1.37.4-2.26,1.32-3.09.41-.36.77-.77,1.15-1.16l-.24-.25-.9.75a137.38,137.38,0,0,1-15.73,12,16,16,0,0,1-12.78,2A13.68,13.68,0,0,1,3.82,78a10.76,10.76,0,0,0-.26-1.09Zm20.16-.84.06.06a7.19,7.19,0,0,1,.32,2.07c-.15,1-1.33,1.75-1,3-1.39,1.06-2.09,2.9-3.92,3.43a7.3,7.3,0,0,1-2,.26c-3.68-.08-6-2.15-5.73-5.4a5.11,5.11,0,0,1,2.87-4.19c.83-.43,2.16.12,3.29.23l-.09.63,1.3.62.59-.39a3.69,3.69,0,0,0-2.54-3.06,5.53,5.53,0,0,0-4.48.21,8.85,8.85,0,0,0-3.09,2.73c-1.49,2.3-2.18,4.79.17,7.1a.72.72,0,0,1,.11.19A10,10,0,0,0,23,84.23c2.73-1.38,5.36-3,8-4.48Q39.24,75,47.45,70.17s0-.12,0-.34c-.78.33-1.53.59-2.23,1-1.73.91-3.47,1.8-5.13,2.82a10.62,10.62,0,0,1-7.47,1.51,4.35,4.35,0,0,1-3.23-1.73,12.79,12.79,0,0,1-1.66-3.48,4.33,4.33,0,0,1,3.21-5.17l1-.26c-4-3.28-4-3.28-4-7.43L16.79,66a17,17,0,0,1,2.19.25c2.4.57,3.52,2.58,4.69,4.44C24,71.14,23.72,72,23.72,72.61ZM43.38,22.24c-.06.32-.08.55-.14.76a22.1,22.1,0,0,0-.36,11.13c1.12,5.45,2.78,10.65,6.26,15.13,1.46,1.88,2.72,3.9,4,5.88a1.48,1.48,0,0,0,1.66.87,1.61,1.61,0,0,1,1.17.67c.63.81,1.13,1.73,1.7,2.59a7.59,7.59,0,0,0,.69.83l.4-.18c-8.59-12-10.89-25.45-9.46-39.35l-2.51-1.21,1.07-1.77A1.48,1.48,0,0,0,45.57,17a11,11,0,0,0-5,7.53,3.7,3.7,0,0,0,0,.87h1.31l-1-.7,1.29-.21-1.06-.94h1.15L42.25,22ZM35.27,39.13l.46-.62c.13.25.39.52.38.77a12.9,12.9,0,0,0-.25,2.59A33.11,33.11,0,0,0,37,46.44a9.71,9.71,0,0,0,3.23,4.92c3.3,2.62,6.66,5.17,10,7.72.27.21.78.43,1,.31.86-.42,1.26.13,1.75.62,1,1,2.05,2,3.07,3l.23-.22c-.24-.28-.47-.56-.71-.82-3.25-3.57-6.53-7.12-9.76-10.7A31.35,31.35,0,0,1,39.24,40c-.28-.86-.6-1.71-.83-2.37-.69.08-1.41.37-1.74.13s-.45-1-.68-1.63c-2.5.12-3.36,4.44-2.66,7.38l1.74-.39-1.74-.62,1.78-.58-.06-.17-1.6-.24L35,40.89l-1.35-.56,1.75-.3L34,39.27c.13-.09.16-.13.18-.13ZM52.78,68l0-.33c-5.76-3.19-12.06-1.92-18.31-2.27.11.54.21.93.28,1.34a1.69,1.69,0,0,1-.94,2c-.45.19-1.35.21-1.55-.06a5.28,5.28,0,0,1-.4-2c-1.29-.74-1.27,1-2.17,1.44l.75.56-.8.59,1.73.12L30.3,70c.83.17,1.9.09,2.54.58a3.93,3.93,0,0,0,3.86.73c3.73-1.13,7.47-2.25,11.2-3.4a3.44,3.44,0,0,0,.85-.66ZM32,48.83l-1.55,4.83a11.52,11.52,0,0,1,1.2-.41,2.55,2.55,0,0,1,2.63,4.21A1.63,1.63,0,0,1,32,57.17c-.61-.69.09-1,.45-1.38a1.42,1.42,0,0,0,.15-.37,2.06,2.06,0,0,0-2.19.69c-.09.1.13.5.2.74l-1.13.68,1,.37-.7.88c1.47-.43,2.66-.43,3.62.46a10.05,10.05,0,0,0,5.08,2.25c3.11.62,6.23,1.22,9.35,1.82.26,0,.65.11.77,0,.69-.71,1.25-.22,1.83.11l4,2.26.22-.35a26.43,26.43,0,0,0-3.29-2.23q-4.78-2.36-9.7-4.46c-4.43-1.91-7.84-4.76-9.33-9.52C32.27,49,32.19,49,32,48.83ZM20.44,58.5l.15.13a7.89,7.89,0,0,0,.65-.49c.87-.8,1.71-1.64,2.62-2.39,3.58-3,4.16-7.41,1.39-10.9-.92-1.16-2.6-1.68-3.56-1.1.53,2.23,0,3.06-2.9,4.54.79.54,2,.94,2.28,1.69s-.12,1.94-.24,3c1.28.61,1.49,1.09.92,2.57C21.37,56.53,20.88,57.5,20.44,58.5ZM28.34,46l-.42.73c.82.06,1.08-.32,1-1a5.78,5.78,0,0,0-.33-1.56,7.1,7.1,0,0,0-9.08-3.57,4,4,0,0,0-2.47,3c-.05.2.11.44.18.67.32-1,3.46-2.53,4.83-2.4,2.47.23,4.91,1.86,4.92,3.26L28,45l.15.22L27,45.83Zm24.6-28.5,1.45-.19L52.75,16,51.6,20.68l1.15-.33-.36-.63,1.71-.34-1.69-.79,1.83-.31ZM12.93,76a6.89,6.89,0,0,0,1.44.86,3.07,3.07,0,0,0,1.78.14,1.94,1.94,0,0,0,1.3-2.08c-.7.58-1.25,1.36-1.86,1.42s-1.25-.63-2-1.07Zm35.7-4.83,4.59-.55C51.65,69.84,50.12,70.39,48.63,71.17ZM41.53,29.5l-1.37-.76,1.3-.39c-.44-.24-1.15-.4-1.25-.21A4.88,4.88,0,0,0,40,29.82Zm-26.28,36c-.63,0-1.22.05-1.79.14s-1.05.24-1.57.37l.15.55C12.89,65.5,14.55,67,15.25,65.49Z"/><path class="cls-2" d="M57.11,69.41c.93,0,1.85-.12,2.78-.16s1.82,0,2.73,0c.17,0,.33.24.49.36-.12.16-.23.44-.36.45-1.75,0-3.49.08-5.24.09-.14,0-.28-.22-.42-.34Z"/><path class="cls-2" d="M58.6,68c.78-.07,1.52-.17,2.26-.21s1.43,0,2.2,0v.86C62.44,69.17,59,68.73,58.6,68Z"/><path class="cls-2" d="M59.85,66.47c1.13,0,2,0,3,0,.09,0,.29.46.22.57C62.8,67.43,60.44,67.13,59.85,66.47Z"/></svg>